<svg xmlns="http://www.w3.org/2000/svg" width="3465" height="1949" fill="none"><g clip-path="url(#a)" opacity=".5"><mask id="b" width="3465" height="1949" x="0" y="0" maskUnits="userSpaceOnUse" style="mask-type:luminance"><path fill="#fff" d="M3465 0H0v1949h3465V0Z"/></mask><g fill="#000" fill-rule="evenodd" clip-rule="evenodd" mask="url(#b)"><path d="m66.195-7.485 7.255 6.77-.69.74-7.259-6.766.694-.744Zm73.476 0 7.256 6.77-.69.74-7.259-6.766.693-.744Zm73.477 0 7.255 6.77-.69.74-7.26-6.766.695-.744Zm73.476 0 7.254 6.77-.689.74-7.258-6.766.693-.744Zm73.476 0 7.257 6.77-.691.74-7.259-6.766.693-.744Zm73.48 0 7.258 6.77-.693.74-7.258-6.766.693-.744Zm73.475 0 7.259 6.77-.691.74-7.259-6.766.691-.744Zm73.477 0 7.258 6.77-.691.74-7.258-6.766.691-.744Zm73.477 0 7.259 6.77-.693.74-7.259-6.766.693-.744Zm73.477 0 7.258 6.77-.693.74-7.258-6.766.693-.744Zm73.476 0 7.258 6.77-.691.74-7.258-6.766.691-.744Zm73.475 0 7.261 6.77-.693.74-7.259-6.766.691-.744Zm73.479 0 7.258 6.77-.693.74-7.258-6.766.693-.744Zm73.474 0 7.26 6.77-.7.74-7.25-6.766.69-.744Zm73.47 0 7.26 6.77-.69.74-7.26-6.766.69-.744Zm73.48 0 7.26 6.77-.69.74-7.26-6.766.69-.744Zm73.48 0 7.26 6.77-.7.74-7.26-6.766.7-.744Zm73.47 0 7.26 6.77-.69.74-7.26-6.766.69-.744Zm73.48 0 7.26 6.77-.69.74-7.26-6.766.69-.744Zm73.48 0 7.26 6.77-.7.74-7.25-6.766.69-.744Zm73.47 0 7.26 6.77-.69.74-7.26-6.766.69-.744Zm73.48 0 7.26 6.77-.69.74-7.26-6.766.69-.744Zm73.48 0 7.26 6.77-.7.74-7.26-6.766.7-.744Zm73.47 0 7.26 6.77-.69.74-7.26-6.766.69-.744Zm73.48 0 7.25 6.77-.68.74-7.26-6.766.69-.744Zm73.48 0 7.26 6.77-.7.74-7.26-6.766.7-.744Zm73.47 0 7.26 6.77-.69.74-7.25-6.766.68-.744Zm73.47 0 7.28 6.77-.71.74-7.25-6.766.68-.744Zm73.49 0 7.25 6.77-.68.74-7.27-6.766.7-.744Zm73.47 0 7.25 6.77-.68.74-7.26-6.766.69-.744Zm73.48 0 7.26 6.77-.69.74-7.27-6.766.7-.744Zm73.47 0 7.26 6.77-.69.74-7.25-6.766.68-.744Zm73.49 0 7.26 6.77-.71.74-7.25-6.766.7-.744Zm73.47 0 7.26 6.77-.69.74-7.26-6.766.69-.744Zm73.47 0 7.27 6.77-.7.74-7.26-6.766.69-.744Zm73.49 0 7.25 6.77-.69.74-7.27-6.766.71-.744Zm73.46 0 7.26 6.77-.69.74-7.25-6.766.68-.744Zm73.49 0 7.26 6.77-.69.74-7.27-6.766.7-.744Zm73.47 0 7.25 6.77-.68.74-7.26-6.766.69-.744Zm73.49 0 7.25 6.77-.7.74-7.26-6.766.71-.744Zm73.47 0 7.25 6.77-.68.74-7.26-6.766.69-.744Zm73.46 0 7.28 6.77-.71.74-7.25-6.766.68-.744Zm73.49 0 7.26 6.77-.69.74-7.27-6.766.7-.744Zm73.47 0 7.25 6.77-.68.74-7.26-6.766.69-.744Zm73.49 0 7.25 6.77-.68.74-7.28-6.766.71-.744Zm73.47 0 7.25 6.77-.68.74-7.26-6.766.69-.744Zm73.48 0 7.26 6.77-.71.74-7.25-6.766.7-.744ZM66.195 65.99l7.255 6.77-.69.74-7.259-6.766.694-.744Zm73.476 0 7.256 6.77-.69.74-7.259-6.766.693-.744Zm73.477 0 7.255 6.77-.69.74-7.26-6.766.695-.744Zm73.476 0 7.254 6.77-.689.74-7.258-6.766.693-.744Zm73.476 0 7.257 6.77-.691.74-7.259-6.766.693-.744Zm73.48 0 7.258 6.77-.693.74-7.258-6.766.693-.744Zm73.475 0 7.259 6.77-.691.74-7.259-6.766.691-.744Zm73.477 0 7.258 6.77-.691.74-7.258-6.766.691-.744Zm73.477 0 7.259 6.77-.693.74-7.259-6.766.693-.744Zm73.477 0 7.258 6.77-.693.74-7.258-6.766.693-.744Zm73.476 0 7.258 6.77-.691.74-7.258-6.766.691-.744Zm73.475 0 7.261 6.77-.693.74-7.259-6.766.691-.744Zm73.479 0 7.258 6.77-.693.74-7.258-6.766.693-.744Zm73.474 0 7.26 6.77-.7.74-7.25-6.766.69-.744Zm73.47 0 7.26 6.77-.69.74-7.26-6.766.69-.744Zm73.48 0 7.26 6.77-.69.74-7.26-6.766.69-.744Zm73.48 0 7.26 6.77-.7.74-7.26-6.766.7-.744Zm73.47 0 7.26 6.77-.69.74-7.26-6.766.69-.744Zm73.48 0 7.26 6.77-.69.74-7.26-6.766.69-.744Zm73.48 0 7.26 6.77-.7.74-7.25-6.766.69-.744Zm73.47 0 7.26 6.77-.69.74-7.26-6.766.69-.744Zm73.48 0 7.26 6.77-.69.74-7.26-6.766.69-.744Zm73.48 0 7.26 6.77-.7.74-7.26-6.766.7-.744Zm73.47 0 7.26 6.77-.69.74-7.26-6.766.69-.744Zm73.48 0 7.25 6.77-.68.74-7.26-6.766.69-.744Zm73.48 0 7.26 6.77-.7.74-7.26-6.766.7-.744Zm73.47 0 7.26 6.77-.69.74-7.25-6.766.68-.744Zm73.47 0 7.28 6.77-.71.74-7.25-6.766.68-.744Zm73.49 0 7.25 6.77-.68.74-7.27-6.766.7-.744Zm73.47 0 7.25 6.77-.68.74-7.26-6.766.69-.744Zm73.48 0 7.26 6.77-.69.74-7.27-6.766.7-.744Zm73.47 0 7.26 6.77-.69.74-7.25-6.766.68-.744Zm73.49 0 7.26 6.77-.71.74-7.25-6.766.7-.744Zm73.47 0 7.26 6.77-.69.74-7.26-6.766.69-.744Zm73.47 0 7.27 6.77-.7.74-7.26-6.766.69-.744Zm73.49 0 7.25 6.77-.69.74-7.27-6.766.71-.744Zm73.46 0 7.26 6.77-.69.74-7.25-6.766.68-.744Zm73.49 0 7.26 6.77-.69.74-7.27-6.766.7-.744Zm73.47 0 7.25 6.77-.68.74-7.26-6.766.69-.744Zm73.49 0 7.25 6.77-.7.74-7.26-6.766.71-.744Zm73.47 0 7.25 6.77-.68.74-7.26-6.766.69-.744Zm73.46 0 7.28 6.77-.71.74-7.25-6.766.68-.744Zm73.49 0 7.26 6.77-.69.74-7.27-6.766.7-.744Zm73.47 0 7.25 6.77-.68.74-7.26-6.766.69-.744Zm73.49 0 7.25 6.77-.68.74-7.28-6.766.71-.744Zm73.47 0 7.25 6.77-.68.74-7.26-6.766.69-.744Zm73.48 0 7.26 6.77-.71.74-7.25-6.766.7-.744ZM66.195 139.464l7.255 6.769-.69.74-7.259-6.765.694-.744Zm73.476 0 7.256 6.769-.69.74-7.259-6.765.693-.744Zm73.477 0 7.255 6.769-.69.741-7.26-6.766.695-.744Zm73.476 0 7.254 6.769-.689.74-7.258-6.765.693-.744Zm73.476 0 7.257 6.769-.691.741-7.259-6.766.693-.744Zm73.48 0 7.258 6.769-.693.741-7.258-6.766.693-.744Zm73.475 0 7.259 6.769-.691.74-7.259-6.765.691-.744Zm73.477 0 7.258 6.769-.691.74-7.258-6.765.691-.744Zm73.477 0 7.259 6.769-.693.741-7.259-6.766.693-.744Zm73.477 0 7.258 6.769-.693.74-7.258-6.765.693-.744Zm73.476 0 7.258 6.769-.691.741-7.258-6.766.691-.744Zm73.475 0 7.261 6.769-.693.74-7.259-6.765.691-.744Zm73.479 0 7.258 6.769-.693.741-7.258-6.766.693-.744Zm73.474 0 7.26 6.769-.7.74-7.25-6.765.69-.744Zm73.47 0 7.26 6.769-.69.741-7.26-6.766.69-.744Zm73.48 0 7.26 6.769-.69.74-7.26-6.765.69-.744Zm73.48 0 7.26 6.769-.7.741-7.26-6.766.7-.744Zm73.47 0 7.26 6.769-.69.741-7.26-6.766.69-.744Zm73.48 0 7.26 6.769-.69.741-7.26-6.766.69-.744Zm73.48 0 7.26 6.769-.7.741-7.25-6.766.69-.744Zm73.47 0 7.26 6.769-.69.741-7.26-6.766.69-.744Zm73.48 0 7.26 6.769-.69.741-7.26-6.766.69-.744Zm73.48 0 7.26 6.769-.7.74-7.26-6.765.7-.744Zm73.47 0 7.26 6.769-.69.741-7.26-6.766.69-.744Zm73.48 0 7.25 6.769-.68.741-7.26-6.766.69-.744Zm73.48 0 7.26 6.769-.7.741-7.26-6.766.7-.744Zm73.47 0 7.26 6.769-.69.741-7.25-6.766.68-.744Zm73.47 0 7.28 6.769-.71.741-7.25-6.766.68-.744Zm73.49 0 7.25 6.769-.68.741-7.27-6.766.7-.744Zm73.47 0 7.25 6.769-.68.741-7.26-6.766.69-.744Zm73.48 0 7.26 6.769-.69.741-7.27-6.766.7-.744Zm73.47 0 7.26 6.769-.69.741-7.25-6.766.68-.744Zm73.49 0 7.26 6.769-.71.741-7.25-6.766.7-.744Zm73.47 0 7.26 6.769-.69.741-7.26-6.766.69-.744Zm73.47 0 7.27 6.769-.7.741-7.26-6.766.69-.744Zm73.49 0 7.25 6.769-.69.741-7.27-6.766.71-.744Zm73.46 0 7.26 6.769-.69.741-7.25-6.766.68-.744Zm73.49 0 7.26 6.769-.69.741-7.27-6.766.7-.744Zm73.47 0 7.25 6.769-.68.741-7.26-6.766.69-.744Zm73.49 0 7.25 6.769-.7.741-7.26-6.766.71-.744Zm73.47 0 7.25 6.769-.68.741-7.26-6.766.69-.744Zm73.46 0 7.28 6.769-.71.741-7.25-6.766.68-.744Zm73.49 0 7.26 6.769-.69.741-7.27-6.766.7-.744Zm73.47 0 7.25 6.769-.68.741-7.26-6.766.69-.744Zm73.49 0 7.25 6.769-.68.741-7.28-6.766.71-.744Zm73.47 0 7.25 6.769-.68.741-7.26-6.766.69-.744Zm73.48 0 7.26 6.769-.71.741-7.25-6.766.7-.744ZM66.195 212.937l7.255 6.771-.69.74-7.259-6.765.694-.746Zm73.476 0 7.256 6.771-.69.74-7.259-6.765.693-.746Zm73.477 0 7.255 6.771-.69.74-7.26-6.765.695-.746Zm73.476 0 7.254 6.771-.689.74-7.258-6.765.693-.746Zm73.476 0 7.257 6.771-.691.74-7.259-6.765.693-.746Zm73.48 0 7.258 6.771-.693.74-7.258-6.765.693-.746Zm73.475 0 7.259 6.771-.691.74-7.259-6.765.691-.746Zm73.477 0 7.258 6.771-.691.74-7.258-6.765.691-.746Zm73.477 0 7.259 6.771-.693.74-7.259-6.765.693-.746Zm73.477 0 7.258 6.771-.693.74-7.258-6.765.693-.746Zm73.476 0 7.258 6.771-.691.74-7.258-6.765.691-.746Zm73.475 0 7.261 6.771-.693.74-7.259-6.765.691-.746Zm73.479 0 7.258 6.771-.693.74-7.258-6.765.693-.746Zm73.474 0 7.26 6.771-.7.74-7.25-6.765.69-.746Zm73.47 0 7.26 6.771-.69.74-7.26-6.765.69-.746Zm73.48 0 7.26 6.771-.69.74-7.26-6.765.69-.746Zm73.48 0 7.26 6.771-.7.74-7.26-6.765.7-.746Zm73.47 0 7.26 6.771-.69.74-7.26-6.765.69-.746Zm73.48 0 7.26 6.771-.69.74-7.26-6.765.69-.746Zm73.48 0 7.26 6.771-.7.74-7.25-6.765.69-.746Zm73.47 0 7.26 6.771-.69.74-7.26-6.765.69-.746Zm73.48 0 7.26 6.771-.69.74-7.26-6.765.69-.746Zm73.48 0 7.26 6.771-.7.74-7.26-6.765.7-.746Zm73.47 0 7.26 6.771-.69.74-7.26-6.765.69-.746Zm73.48 0 7.25 6.771-.68.74-7.26-6.765.69-.746Zm73.48 0 7.26 6.771-.7.74-7.26-6.765.7-.746Zm73.47 0 7.26 6.771-.69.74-7.25-6.765.68-.746Zm73.47 0 7.28 6.771-.71.74-7.25-6.765.68-.746Zm73.49 0 7.25 6.771-.68.74-7.27-6.765.7-.746Zm73.47 0 7.25 6.771-.68.74-7.26-6.765.69-.746Zm73.48 0 7.26 6.771-.69.74-7.27-6.765.7-.746Zm73.47 0 7.26 6.771-.69.74-7.25-6.765.68-.746Zm73.49 0 7.26 6.771-.71.74-7.25-6.765.7-.746Zm73.47 0 7.26 6.771-.69.74-7.26-6.765.69-.746Zm73.47 0 7.27 6.771-.7.74-7.26-6.765.69-.746Zm73.49 0 7.25 6.771-.69.74-7.27-6.765.71-.746Zm73.46 0 7.26 6.771-.69.74-7.25-6.765.68-.746Zm73.49 0 7.26 6.771-.69.74-7.27-6.765.7-.746Zm73.47 0 7.25 6.771-.68.74-7.26-6.765.69-.746Zm73.49 0 7.25 6.771-.7.74-7.26-6.765.71-.746Zm73.47 0 7.25 6.771-.68.74-7.26-6.765.69-.746Zm73.46 0 7.28 6.771-.71.74-7.25-6.765.68-.746Zm73.49 0 7.26 6.771-.69.74-7.27-6.765.7-.746Zm73.47 0 7.25 6.771-.68.74-7.26-6.765.69-.746Zm73.49 0 7.25 6.771-.68.74-7.28-6.765.71-.746Zm73.47 0 7.25 6.771-.68.74-7.26-6.765.69-.746Zm73.48 0 7.26 6.771-.71.74-7.25-6.765.7-.746ZM66.195 286.413l7.255 6.769-.69.74-7.259-6.766.694-.743Zm73.476 0 7.256 6.769-.69.74-7.259-6.766.693-.743Zm73.477 0 7.255 6.769-.69.74-7.26-6.766.695-.743Zm73.476 0 7.254 6.769-.689.74-7.258-6.766.693-.743Zm73.476 0 7.257 6.769-.691.74-7.259-6.766.693-.743Zm73.48 0 7.258 6.769-.693.74-7.258-6.766.693-.743Zm73.475 0 7.259 6.769-.691.74-7.259-6.766.691-.743Zm73.477 0 7.258 6.769-.691.74-7.258-6.766.691-.743Zm73.477 0 7.259 6.769-.693.74-7.259-6.766.693-.743Zm73.477 0 7.258 6.769-.693.74-7.258-6.766.693-.743Zm73.476 0 7.258 6.769-.691.74-7.258-6.766.691-.743Zm73.475 0 7.261 6.769-.693.74-7.259-6.766.691-.743Zm73.479 0 7.258 6.769-.693.74-7.258-6.766.693-.743Zm73.474 0 7.26 6.769-.7.74-7.25-6.766.69-.743Zm73.47 0 7.26 6.769-.69.74-7.26-6.766.69-.743Zm73.48 0 7.26 6.769-.69.74-7.26-6.766.69-.743Zm73.48 0 7.26 6.769-.7.74-7.26-6.766.7-.743Zm73.47 0 7.26 6.769-.69.74-7.26-6.766.69-.743Zm73.48 0 7.26 6.769-.69.74-7.26-6.766.69-.743Zm73.48 0 7.26 6.769-.7.74-7.25-6.766.69-.743Zm73.47 0 7.26 6.769-.69.74-7.26-6.766.69-.743Zm73.48 0 7.26 6.769-.69.74-7.26-6.766.69-.743Zm73.48 0 7.26 6.769-.7.74-7.26-6.766.7-.743Zm73.47 0 7.26 6.769-.69.74-7.26-6.766.69-.743Zm73.48 0 7.25 6.769-.68.74-7.26-6.766.69-.743Zm73.48 0 7.26 6.769-.7.74-7.26-6.766.7-.743Zm73.47 0 7.26 6.769-.69.74-7.25-6.766.68-.743Zm73.47 0 7.28 6.769-.71.74-7.25-6.766.68-.743Zm73.49 0 7.25 6.769-.68.74-7.27-6.766.7-.743Zm73.47 0 7.25 6.769-.68.74-7.26-6.766.69-.743Zm73.48 0 7.26 6.769-.69.74-7.27-6.766.7-.743Zm73.47 0 7.26 6.769-.69.74-7.25-6.766.68-.743Zm73.49 0 7.26 6.769-.71.74-7.25-6.766.7-.743Zm73.47 0 7.26 6.769-.69.74-7.26-6.766.69-.743Zm73.47 0 7.27 6.769-.7.74-7.26-6.766.69-.743Zm73.49 0 7.25 6.769-.69.74-7.27-6.766.71-.743Zm73.46 0 7.26 6.769-.69.74-7.25-6.766.68-.743Zm73.49 0 7.26 6.769-.69.74-7.27-6.766.7-.743Zm73.47 0 7.25 6.769-.68.74-7.26-6.766.69-.743Zm73.49 0 7.25 6.769-.7.74-7.26-6.766.71-.743Zm73.47 0 7.25 6.769-.68.74-7.26-6.766.69-.743Zm73.46 0 7.28 6.769-.71.74-7.25-6.766.68-.743Zm73.49 0 7.26 6.769-.69.74-7.27-6.766.7-.743Zm73.47 0 7.25 6.769-.68.74-7.26-6.766.69-.743Zm73.49 0 7.25 6.769-.68.74-7.28-6.766.71-.743Zm73.47 0 7.25 6.769-.68.74-7.26-6.766.69-.743Zm73.48 0 7.26 6.769-.71.74-7.25-6.766.7-.743ZM66.195 359.886l7.255 6.77-.69.74-7.259-6.766.694-.744Zm73.476 0 7.256 6.77-.69.74-7.259-6.766.693-.744Zm73.477 0 7.255 6.77-.69.74-7.26-6.766.695-.744Zm73.476 0 7.254 6.77-.689.74-7.258-6.766.693-.744Zm73.476 0 7.257 6.77-.691.74-7.259-6.766.693-.744Zm73.48 0 7.258 6.77-.693.74-7.258-6.766.693-.744Zm73.475 0 7.259 6.77-.691.74-7.259-6.766.691-.744Zm73.477 0 7.258 6.77-.691.74-7.258-6.766.691-.744Zm73.477 0 7.259 6.77-.693.74-7.259-6.766.693-.744Zm73.477 0 7.258 6.77-.693.74-7.258-6.766.693-.744Zm73.476 0 7.258 6.77-.691.74-7.258-6.766.691-.744Zm73.475 0 7.261 6.77-.693.74-7.259-6.766.691-.744Zm73.479 0 7.258 6.77-.693.74-7.258-6.766.693-.744Zm73.474 0 7.26 6.77-.7.74-7.25-6.766.69-.744Zm73.47 0 7.26 6.77-.69.74-7.26-6.766.69-.744Zm73.48 0 7.26 6.77-.69.74-7.26-6.766.69-.744Zm73.48 0 7.26 6.77-.7.74-7.26-6.766.7-.744Zm73.47 0 7.26 6.77-.69.74-7.26-6.766.69-.744Zm73.48 0 7.26 6.77-.69.74-7.26-6.766.69-.744Zm73.48 0 7.26 6.77-.7.74-7.25-6.766.69-.744Zm73.47 0 7.26 6.77-.69.74-7.26-6.766.69-.744Zm73.48 0 7.26 6.77-.69.74-7.26-6.766.69-.744Zm73.48 0 7.26 6.77-.7.74-7.26-6.766.7-.744Zm73.47 0 7.26 6.77-.69.74-7.26-6.766.69-.744Zm73.48 0 7.25 6.77-.68.74-7.26-6.766.69-.744Zm73.48 0 7.26 6.77-.7.74-7.26-6.766.7-.744Zm73.47 0 7.26 6.77-.69.74-7.25-6.766.68-.744Zm73.47 0 7.28 6.77-.71.74-7.25-6.766.68-.744Zm73.49 0 7.25 6.77-.68.74-7.27-6.766.7-.744Zm73.47 0 7.25 6.77-.68.74-7.26-6.766.69-.744Zm73.48 0 7.26 6.77-.69.74-7.27-6.766.7-.744Zm73.47 0 7.26 6.77-.69.74-7.25-6.766.68-.744Zm73.49 0 7.26 6.77-.71.74-7.25-6.766.7-.744Zm73.47 0 7.26 6.77-.69.74-7.26-6.766.69-.744Zm73.47 0 7.27 6.77-.7.74-7.26-6.766.69-.744Zm73.49 0 7.25 6.77-.69.74-7.27-6.766.71-.744Zm73.46 0 7.26 6.77-.69.74-7.25-6.766.68-.744Zm73.49 0 7.26 6.77-.69.74-7.27-6.766.7-.744Zm73.47 0 7.25 6.77-.68.74-7.26-6.766.69-.744Zm73.49 0 7.25 6.77-.7.74-7.26-6.766.71-.744Zm73.47 0 7.25 6.77-.68.74-7.26-6.766.69-.744Zm73.46 0 7.28 6.77-.71.74-7.25-6.766.68-.744Zm73.49 0 7.26 6.77-.69.74-7.27-6.766.7-.744Zm73.47 0 7.25 6.77-.68.74-7.26-6.766.69-.744Zm73.49 0 7.25 6.77-.68.74-7.28-6.766.71-.744Zm73.47 0 7.25 6.77-.68.74-7.26-6.766.69-.744Zm73.48 0 7.26 6.77-.71.74-7.25-6.766.7-.744ZM66.195 433.362l7.255 6.767-.69.74-7.259-6.763.694-.744Zm73.476 0 7.256 6.767-.69.74-7.259-6.763.693-.744Zm73.477 0 7.255 6.767-.69.74-7.26-6.764.695-.743Zm73.476 0 7.254 6.767-.689.74-7.258-6.763.693-.744Zm73.476 0 7.257 6.767-.691.74-7.259-6.764.693-.743Zm73.48 0 7.258 6.767-.693.74-7.258-6.764.693-.743Zm73.475 0 7.259 6.767-.691.74-7.259-6.763.691-.744Zm73.477 0 7.258 6.767-.691.74-7.258-6.763.691-.744Zm73.477 0 7.259 6.767-.693.74-7.259-6.764.693-.743Zm73.477 0 7.258 6.767-.693.74-7.258-6.763.693-.744Zm73.476 0 7.258 6.767-.691.74-7.258-6.764.691-.743Zm73.475 0 7.261 6.767-.693.74-7.259-6.763.691-.744Zm73.479 0 7.258 6.767-.693.74-7.258-6.764.693-.743Zm73.474 0 7.26 6.767-.7.74-7.25-6.763.69-.744Zm73.47 0 7.26 6.767-.69.74-7.26-6.764.69-.743Zm73.48 0 7.26 6.767-.69.74-7.26-6.763.69-.744Zm73.48 0 7.26 6.767-.7.74-7.26-6.764.7-.743Zm73.47 0 7.26 6.767-.69.74-7.26-6.764.69-.743Zm73.48 0 7.26 6.767-.69.74-7.26-6.764.69-.743Zm73.48 0 7.26 6.767-.7.74-7.25-6.764.69-.743Zm73.47 0 7.26 6.767-.69.74-7.26-6.764.69-.743Zm73.48 0 7.26 6.767-.69.74-7.26-6.764.69-.743Zm73.48 0 7.26 6.767-.7.74-7.26-6.763.7-.744Zm73.47 0 7.26 6.767-.69.74-7.26-6.764.69-.743Zm73.48 0 7.25 6.767-.68.74-7.26-6.764.69-.743Zm73.48 0 7.26 6.767-.7.74-7.26-6.764.7-.743Zm73.47 0 7.26 6.767-.69.74-7.25-6.764.68-.743Zm73.47 0 7.28 6.767-.71.74-7.25-6.764.68-.743Zm73.49 0 7.25 6.767-.68.74-7.27-6.764.7-.743Zm73.47 0 7.25 6.767-.68.74-7.26-6.764.69-.743Zm73.48 0 7.26 6.767-.69.74-7.27-6.764.7-.743Zm73.47 0 7.26 6.767-.69.74-7.25-6.764.68-.743Zm73.49 0 7.26 6.767-.71.74-7.25-6.764.7-.743Zm73.47 0 7.26 6.767-.69.74-7.26-6.764.69-.743Zm73.47 0 7.27 6.767-.7.74-7.26-6.764.69-.743Zm73.49 0 7.25 6.767-.69.74-7.27-6.764.71-.743Zm73.46 0 7.26 6.767-.69.74-7.25-6.764.68-.743Zm73.49 0 7.26 6.767-.69.74-7.27-6.764.7-.743Zm73.47 0 7.25 6.767-.68.74-7.26-6.764.69-.743Zm73.49 0 7.25 6.767-.7.74-7.26-6.764.71-.743Zm73.47 0 7.25 6.767-.68.74-7.26-6.764.69-.743Zm73.46 0 7.28 6.767-.71.74-7.25-6.764.68-.743Zm73.49 0 7.26 6.767-.69.74-7.27-6.764.7-.743Zm73.47 0 7.25 6.767-.68.74-7.26-6.764.69-.743Zm73.49 0 7.25 6.767-.68.74-7.28-6.764.71-.743Zm73.47 0 7.25 6.767-.68.74-7.26-6.764.69-.743Zm73.48 0 7.26 6.767-.71.74-7.25-6.764.7-.743ZM66.195 506.837l7.255 6.768-.69.738-7.259-6.764.694-.742Zm73.476 0 7.256 6.768-.69.738-7.259-6.764.693-.742Zm73.477 0 7.255 6.768-.69.738-7.26-6.764.695-.742Zm73.476 0 7.254 6.768-.689.738-7.258-6.764.693-.742Zm73.476 0 7.257 6.768-.691.738-7.259-6.764.693-.742Zm73.48 0 7.258 6.768-.693.738-7.258-6.764.693-.742Zm73.475 0 7.259 6.768-.691.738-7.259-6.764.691-.742Zm73.477 0 7.258 6.768-.691.738-7.258-6.764.691-.742Zm73.477 0 7.259 6.768-.693.738-7.259-6.764.693-.742Zm73.477 0 7.258 6.768-.693.738-7.258-6.764.693-.742Zm73.476 0 7.258 6.768-.691.738-7.258-6.764.691-.742Zm73.475 0 7.261 6.768-.693.738-7.259-6.764.691-.742Zm73.479 0 7.258 6.768-.693.738-7.258-6.764.693-.742Zm73.474 0 7.26 6.768-.7.738-7.25-6.764.69-.742Zm73.47 0 7.26 6.768-.69.738-7.26-6.764.69-.742Zm73.48 0 7.26 6.768-.69.738-7.26-6.764.69-.742Zm73.48 0 7.26 6.768-.7.738-7.26-6.764.7-.742Zm73.47 0 7.26 6.768-.69.738-7.26-6.764.69-.742Zm73.22-.272 7.52 7.011-.72.771-7.52-7.011.72-.771Zm72.99-.498 8 7.464-.76.816-8-7.461.76-.819Zm73.12-.367 8.36 7.796-.8.85-8.36-7.788.8-.858Zm73.26-.229 8.57 8.002-.81.877-8.58-7.996.82-.883Zm73.39-.088 8.66 8.081-.82.886-8.67-8.081.83-.886Zm73.52.047 8.62 8.039-.82.881-8.62-8.04.82-.88Zm73.65.186 8.44 7.872-.79.862-8.45-7.868.8-.866Zm73.79.319 8.14 7.585-.78.826-8.13-7.579.77-.832Zm73.92.457 7.69 7.169-.72.785-7.69-7.166.72-.788Zm73.9.445 7.28 6.768-.71.738-7.25-6.764.68-.742Zm73.49 0 7.25 6.768-.68.738-7.27-6.764.7-.742Zm73.47 0 7.25 6.768-.68.738-7.26-6.764.69-.742Zm73.48 0 7.26 6.768-.69.738-7.27-6.764.7-.742Zm73.47 0 7.26 6.768-.69.738-7.25-6.764.68-.742Zm73.49 0 7.26 6.768-.71.738-7.25-6.764.7-.742Zm73.47 0 7.26 6.768-.69.738-7.26-6.764.69-.742Zm73.47 0 7.27 6.768-.7.738-7.26-6.764.69-.742Zm73.49 0 7.25 6.768-.69.738-7.27-6.764.71-.742Zm73.46 0 7.26 6.768-.69.738-7.25-6.764.68-.742Zm73.49 0 7.26 6.768-.69.738-7.27-6.764.7-.742Zm73.47 0 7.25 6.768-.68.738-7.26-6.764.69-.742Zm73.49 0 7.25 6.768-.7.738-7.26-6.764.71-.742Zm73.47 0 7.25 6.768-.68.738-7.26-6.764.69-.742Zm73.46 0 7.28 6.768-.71.738-7.25-6.764.68-.742Zm73.49 0 7.26 6.768-.69.738-7.27-6.764.7-.742Zm73.47 0 7.25 6.768-.68.738-7.26-6.764.69-.742Zm73.49 0 7.25 6.768-.68.738-7.28-6.764.71-.742Zm73.47 0 7.25 6.768-.68.738-7.26-6.764.69-.742Zm73.48 0 7.26 6.768-.71.738-7.25-6.764.7-.742ZM66.195 580.311l7.255 6.767-.69.738-7.259-6.763.694-.742Zm73.476 0 7.256 6.767-.69.738-7.259-6.763.693-.742Zm73.477 0 7.255 6.767-.69.738-7.26-6.763.695-.742Zm73.476 0 7.254 6.767-.689.738-7.258-6.763.693-.742Zm73.476 0 7.257 6.767-.691.738-7.259-6.763.693-.742Zm73.48 0 7.258 6.767-.693.738-7.258-6.763.693-.742Zm73.475 0 7.259 6.767-.691.738-7.259-6.763.691-.742Zm73.477 0 7.258 6.767-.691.738-7.258-6.763.691-.742Zm73.477 0 7.259 6.767-.693.738-7.259-6.763.693-.742Zm73.477 0 7.258 6.767-.693.738-7.258-6.763.693-.742Zm73.476 0 7.258 6.767-.691.738-7.258-6.763.691-.742Zm73.475 0 7.261 6.767-.693.738-7.259-6.763.691-.742Zm73.479 0 7.258 6.767-.693.738-7.258-6.763.693-.742Zm73.474 0 7.26 6.767-.7.738-7.25-6.763.69-.742Zm73.41-.07 7.32 6.828-.7.751-7.32-6.829.7-.75Zm72.46-1.043 8.34 7.776-.8.846-8.34-7.769.8-.853Zm72.58-.923 9.23 8.608-.88.941-9.23-8.605.88-.944Zm72.71-.792 9.99 9.325-.95 1.021-9.99-9.321.95-1.025Zm72.83-.657 10.64 9.919-1.01 1.082-10.64-9.911 1.01-1.09Zm72.98-.521 11.13 10.389-1.06 1.137-11.14-10.382 1.07-1.144Zm73.11-.379 11.5 10.734-1.09 1.173-11.52-10.729 1.11-1.178Zm73.24-.24 11.74 10.95-1.12 1.197-11.75-10.945 1.13-1.202Zm73.38-.092 11.83 11.035-1.12 1.207-11.84-11.033 1.13-1.209Zm73.53.045 11.78 10.994-1.12 1.2-11.79-10.983 1.13-1.211Zm73.66.193 11.6 10.821-1.1 1.18-11.6-10.81 1.1-1.191Zm73.81.337 11.26 10.514-1.06 1.15-11.28-10.509 1.08-1.155Zm73.94.479 10.79 10.082-1.01 1.103-10.83-10.079 1.05-1.106Zm74.06.615 10.22 9.525-.98 1.039-10.21-9.519.97-1.045Zm74.21.747 9.49 8.848-.92.966-9.47-8.839.9-.975Zm74.34.883 8.62 8.05-.81.883-8.64-8.049.83-.884Zm74.46 1.005 7.65 7.143-.72.779-7.67-7.137.74-.785Zm73.86.413 7.26 6.767-.69.738-7.25-6.763.68-.742Zm73.49 0 7.26 6.767-.71.738-7.25-6.763.7-.742Zm73.47 0 7.26 6.767-.69.738-7.26-6.763.69-.742Zm73.47 0 7.27 6.767-.7.738-7.26-6.763.69-.742Zm73.49 0 7.25 6.767-.69.738-7.27-6.763.71-.742Zm73.46 0 7.26 6.767-.69.738-7.25-6.763.68-.742Zm73.49 0 7.26 6.767-.69.738-7.27-6.763.7-.742Zm73.47 0 7.25 6.767-.68.738-7.26-6.763.69-.742Zm73.49 0 7.25 6.767-.7.738-7.26-6.763.71-.742Zm73.47 0 7.25 6.767-.68.738-7.26-6.763.69-.742Zm73.46 0 7.28 6.767-.71.738-7.25-6.763.68-.742Zm73.49 0 7.26 6.767-.69.738-7.27-6.763.7-.742Zm73.47 0 7.25 6.767-.68.738-7.26-6.763.69-.742Zm73.49 0 7.25 6.767-.68.738-7.28-6.763.71-.742Zm73.47 0 7.25 6.767-.68.738-7.26-6.763.69-.742Zm73.48 0 7.26 6.767-.71.738-7.25-6.763.7-.742ZM66.195 653.785l7.255 6.767-.69.738-7.259-6.762.694-.743Zm73.476 0 7.256 6.767-.69.738-7.259-6.762.693-.743Zm73.477 0 7.255 6.767-.69.738-7.26-6.762.695-.743Zm73.476 0 7.254 6.767-.689.738-7.258-6.762.693-.743Zm73.476 0 7.257 6.767-.691.738-7.259-6.762.693-.743Zm73.48 0 7.258 6.767-.693.738-7.258-6.762.693-.743Zm73.475 0 7.259 6.767-.691.738-7.259-6.762.691-.743Zm73.477 0 7.258 6.767-.691.738-7.258-6.762.691-.743Zm73.477 0 7.259 6.767-.693.738-7.259-6.762.693-.743Zm73.477 0 7.258 6.767-.693.738-7.258-6.762.693-.743Zm73.476 0 7.258 6.767-.691.738-7.258-6.762.691-.743Zm73.475 0 7.261 6.767-.693.738-7.259-6.762.691-.743Zm72.909-.588 7.823 7.301-.742.796-7.83-7.296.749-.801Zm72.184-1.331 9.11 8.504-.86.927-9.12-8.494.87-.937Zm72.29-1.214 10.29 9.602-.97 1.049-10.3-9.595.98-1.056Zm72.42-1.086 11.35 10.584-1.08 1.156-11.35-10.576 1.08-1.164Zm72.54-.959 12.28 11.451-1.17 1.252-12.28-11.447 1.17-1.256Zm72.68-.828 13.07 12.201-1.24 1.334-13.08-12.192 1.25-1.343Zm72.8-.688 13.75 12.824-1.31 1.399-13.75-12.811 1.31-1.412Zm72.95-.541 14.27 13.309-1.36 1.458-14.27-13.305 1.36-1.462Zm73.09-.399 14.66 13.674-1.39 1.492-14.67-13.666 1.4-1.5Zm73.24-.251 14.89 13.898-1.42 1.519-14.9-13.89 1.43-1.527Zm73.38-.097 14.99 13.988-1.43 1.526-15-13.978 1.44-1.536Zm73.52.051 14.95 13.94-1.43 1.523-14.95-13.931 1.43-1.532Zm73.68.2 14.74 13.76-1.4 1.503-14.75-13.751 1.41-1.512Zm73.81.353 14.4 13.441-1.35 1.469-14.42-13.433 1.37-1.477Zm73.96.499 13.93 12.989-1.32 1.419-13.93-12.981 1.32-1.427Zm74.1.642 13.3 12.409-1.26 1.357-13.3-12.402 1.26-1.364Zm74.24.78 12.55 11.701-1.19 1.281-12.57-11.694 1.21-1.288Zm74.38.92 11.65 10.871-1.12 1.187-11.65-10.863 1.12-1.195Zm74.49 1.048 10.63 9.924-1.01 1.083-10.65-9.917 1.03-1.09Zm74.63 1.175 9.49 8.861-.9.965-9.51-8.855.92-.971Zm74.73 1.294 8.25 7.691-.8.84-8.25-7.685.8-.846Zm74.46 1.02 7.26 6.767-.69.738-7.26-6.762.69-.743Zm73.47 0 7.27 6.767-.7.738-7.26-6.762.69-.743Zm73.49 0 7.25 6.767-.69.738-7.27-6.762.71-.743Zm73.46 0 7.26 6.767-.69.738-7.25-6.762.68-.743Zm73.49 0 7.26 6.767-.69.738-7.27-6.762.7-.743Zm73.47 0 7.25 6.767-.68.738-7.26-6.762.69-.743Zm73.49 0 7.25 6.767-.7.738-7.26-6.762.71-.743Zm73.47 0 7.25 6.767-.68.738-7.26-6.762.69-.743Zm73.46 0 7.28 6.767-.71.738-7.25-6.762.68-.743Zm73.49 0 7.26 6.767-.69.738-7.27-6.762.7-.743Zm73.47 0 7.25 6.767-.68.738-7.26-6.762.69-.743Zm73.49 0 7.25 6.767-.68.738-7.28-6.762.71-.743Zm73.47 0 7.25 6.767-.68.738-7.26-6.762.69-.743Zm73.48 0 7.26 6.767-.71.738-7.25-6.762.7-.743ZM66.195 727.259l7.255 6.767-.69.74-7.259-6.764.694-.743Zm73.476 0 7.256 6.767-.69.74-7.259-6.764.693-.743Zm73.477 0 7.255 6.767-.69.74-7.26-6.764.695-.743Zm73.476 0 7.254 6.767-.689.74-7.258-6.764.693-.743Zm73.476 0 7.257 6.767-.691.74-7.259-6.764.693-.743Zm73.48 0 7.258 6.767-.693.74-7.258-6.764.693-.743Zm73.475 0 7.259 6.767-.691.74-7.259-6.764.691-.743Zm73.477 0 7.258 6.767-.691.74-7.258-6.764.691-.743Zm73.477 0 7.259 6.767-.693.74-7.259-6.764.693-.743Zm73.477 0 7.258 6.767-.693.74-7.258-6.764.693-.743Zm73.066-.426 7.664 7.155-.727.781-7.674-7.151.737-.785Zm71.912-1.603 9.223 8.603-.877.94-9.227-8.601.881-.942Zm72.019-1.501 10.677 9.961-1.018 1.087-10.68-9.955 1.021-1.093Zm72.127-1.381 12.02 11.211-1.14 1.225-12.03-11.207 1.15-1.229Zm72.25-1.265 13.24 12.356-1.25 1.35-13.25-12.347 1.26-1.359Zm72.38-1.137 14.33 13.383-1.36 1.462-14.35-13.372 1.38-1.473Zm72.5-1.001 15.31 14.289-1.45 1.562-15.33-14.281 1.47-1.57Zm72.63-.863 16.15 15.067-1.53 1.647-16.16-15.059 1.54-1.655Zm72.78-.718 16.85 15.718-1.6 1.718-16.86-15.707 1.61-1.729Zm72.92-.569 17.4 16.233-1.65 1.772-17.41-16.222 1.66-1.783Zm73.08-.418 17.8 16.609-1.7 1.818-17.81-16.601 1.71-1.826Zm73.22-.264 18.05 16.85-1.71 1.841-18.07-16.838 1.73-1.853Zm73.37-.099 18.16 16.938-1.73 1.852-18.16-16.93 1.73-1.86Zm73.53.054 18.11 16.891-1.72 1.845-18.12-16.881 1.73-1.855Zm73.69.208 17.89 16.701-1.7 1.827-17.9-16.691 1.71-1.837Zm73.83.371 17.54 16.366-1.67 1.791-17.55-16.358 1.68-1.799Zm73.98.518 17.03 15.899-1.6 1.736-17.06-15.886 1.63-1.749Zm74.13.673 16.39 15.287-1.57 1.675-16.39-15.28 1.57-1.682Zm74.27.82 15.61 14.548-1.5 1.59-15.59-14.541 1.48-1.597Zm74.4.96 14.68 13.677-1.39 1.498-14.68-13.676 1.39-1.499Zm74.55 1.093 13.61 12.689-1.3 1.387-13.6-12.683 1.29-1.393Zm74.66 1.224 12.42 11.586-1.17 1.263-12.44-11.577 1.19-1.272Zm74.79 1.344 11.12 10.368-1.07 1.133-11.11-10.36 1.06-1.141Zm74.91 1.462 9.69 9.045-.92.99-9.71-9.041.94-.994Zm75.01 1.574 8.15 7.622-.77.832-8.18-7.619.8-.835Zm74.39.944 7.25 6.767-.69.74-7.27-6.764.71-.743Zm73.46 0 7.26 6.767-.69.74-7.25-6.764.68-.743Zm73.49 0 7.26 6.767-.69.74-7.27-6.764.7-.743Zm73.47 0 7.25 6.767-.68.74-7.26-6.764.69-.743Zm73.49 0 7.25 6.767-.7.74-7.26-6.764.71-.743Zm73.47 0 7.25 6.767-.68.74-7.26-6.764.69-.743Zm73.46 0 7.28 6.767-.71.74-7.25-6.764.68-.743Zm73.49 0 7.26 6.767-.69.74-7.27-6.764.7-.743Zm73.47 0 7.25 6.767-.68.74-7.26-6.764.69-.743Zm73.49 0 7.25 6.767-.68.74-7.28-6.764.71-.743Zm73.47 0 7.25 6.767-.68.74-7.26-6.764.69-.743Zm73.48 0 7.26 6.767-.71.74-7.25-6.764.7-.743ZM66.195 800.734l7.255 6.767-.69.738-7.259-6.763.694-.742Zm73.476 0 7.256 6.767-.69.738-7.259-6.763.693-.742Zm73.477 0 7.255 6.767-.69.738-7.26-6.763.695-.742Zm73.476 0 7.254 6.767-.689.738-7.258-6.763.693-.742Zm73.476 0 7.257 6.767-.691.738-7.259-6.763.693-.742Zm73.48 0 7.258 6.767-.693.738-7.258-6.763.693-.742Zm73.475 0 7.259 6.767-.691.738-7.259-6.763.691-.742Zm73.477 0 7.258 6.767-.691.738-7.258-6.763.691-.742Zm73.477 0 7.259 6.767-.693.738-7.259-6.763.693-.742Zm72.067-1.451 8.659 8.079-.823.885-8.668-8.078.832-.886Zm71.754-1.77 10.376 9.681-.986 1.056-10.384-9.674.994-1.063Zm71.858-1.668 11.986 11.189-1.14 1.225-11.996-11.183 1.15-1.231Zm71.96-1.554 13.501 12.595-1.284 1.377-13.508-12.587 1.291-1.385Zm72.072-1.443 14.9 13.899-1.42 1.519-14.9-13.89 1.42-1.528Zm72.2-1.314 16.18 15.088-1.54 1.648-16.18-15.078 1.54-1.658Zm72.32-1.188 17.33 16.165-1.65 1.763-17.33-16.154 1.65-1.774Zm72.46-1.048 18.34 17.112-1.74 1.867-18.35-17.099 1.75-1.88Zm72.6-.904 19.21 17.927-1.83 1.962-19.22-17.917 1.84-1.972Zm72.74-.751 19.95 18.61-1.9 2.033-19.95-18.6 1.9-2.043Zm72.89-.599 20.53 19.149-1.95 2.093-20.54-19.138 1.96-2.104Zm73.06-.437 20.94 19.544-1.99 2.139-20.96-19.537 2.01-2.146Zm73.2-.276 21.22 19.793-2.02 2.166-21.22-19.784 2.02-2.175Zm73.38-.106 21.32 19.892-2.03 2.173-21.33-19.882 2.04-2.183Zm73.53.054 21.26 19.842-2.02 2.169-21.28-19.831 2.04-2.18Zm73.69.224 21.06 19.641-2.01 2.146-21.06-19.629 2.01-2.158Zm73.86.386 20.67 19.29-1.97 2.107-20.68-19.278 1.98-2.119Zm74.01.545 20.14 18.799-1.91 2.053-20.16-18.782 1.93-2.07Zm74.16.707 19.45 18.157-1.84 1.983-19.47-18.144 1.86-1.996Zm74.31.856 18.63 17.382-1.77 1.904-18.64-17.375 1.78-1.911Zm74.45 1.005 17.67 16.474-1.68 1.803-17.69-16.467 1.7-1.81Zm74.59 1.14 16.54 15.443-1.57 1.689-16.56-15.433 1.59-1.699Zm74.71 1.278 15.32 14.289-1.46 1.561-15.32-14.28 1.46-1.57Zm74.84 1.402 13.97 13.017-1.34 1.424-13.97-13.01 1.34-1.431Zm74.97 1.52 12.47 11.645-1.19 1.272-12.47-11.636 1.19-1.281Zm75.05 1.633 10.9 10.167-1.04 1.114-10.9-10.164 1.04-1.117Zm75.17 1.736 9.22 8.597-.88.939-9.23-8.589.89-.947Zm75.25 1.837 7.44 6.937-.7.758-7.44-6.933.7-.762Zm73.67.186 7.26 6.767-.69.738-7.27-6.763.7-.742Zm73.47 0 7.25 6.767-.68.738-7.26-6.763.69-.742Zm73.49 0 7.25 6.767-.7.738-7.26-6.763.71-.742Zm73.47 0 7.25 6.767-.68.738-7.26-6.763.69-.742Zm73.46 0 7.28 6.767-.71.738-7.25-6.763.68-.742Zm73.49 0 7.26 6.767-.69.738-7.27-6.763.7-.742Zm73.47 0 7.25 6.767-.68.738-7.26-6.763.69-.742Zm73.49 0 7.25 6.767-.68.738-7.28-6.763.71-.742Zm73.47 0 7.25 6.767-.68.738-7.26-6.763.69-.742Zm73.48 0 7.26 6.767-.71.738-7.25-6.763.7-.742ZM66.195 874.208l7.255 6.767-.69.738-7.259-6.764.694-.741Zm73.476 0 7.256 6.767-.69.738-7.259-6.764.693-.741Zm73.477 0 7.255 6.767-.69.738-7.26-6.764.695-.741Zm73.476 0 7.254 6.767-.689.738-7.258-6.764.693-.741Zm73.476 0 7.257 6.767-.691.738-7.259-6.764.693-.741Zm73.48 0 7.258 6.767-.693.738-7.258-6.764.693-.741Zm73.475 0 7.259 6.767-.691.738-7.259-6.764.691-.741Zm73.289-.193 7.441 6.94-.708.762-7.444-6.941.711-.761Zm71.518-2.02 9.397 8.771-.893.956-9.406-8.763.902-.964Zm71.595-1.929 11.269 10.514-1.072 1.149-11.272-10.506 1.075-1.157Zm71.695-1.833 13.042 12.174-1.236 1.33-13.057-12.165 1.251-1.339Zm71.791-1.733 14.726 13.741-1.399 1.499-14.735-13.728 1.408-1.512Zm71.902-1.62 16.297 15.205-1.551 1.659-16.305-15.193 1.559-1.671Zm72.015-1.5 17.75 16.563-1.69 1.81-17.76-16.552 1.7-1.821Zm72.14-1.377 19.08 17.808-1.81 1.945-19.1-17.797 1.83-1.956Zm72.27-1.238 20.29 18.925-1.93 2.07-20.3-18.918 1.94-2.077Zm72.41-1.097 21.35 19.919-2.03 2.177-21.37-19.907 2.05-2.189Zm72.55-.953 22.27 20.782-2.11 2.27-22.29-20.766 2.13-2.286Zm72.71-.787 23.04 21.493-2.19 2.346-23.05-21.477 2.2-2.362Zm72.86-.632 23.65 22.062-2.25 2.413-23.66-22.049 2.26-2.426Zm73.03-.46 24.1 22.481-2.3 2.456-24.1-22.464 2.3-2.473Zm73.2-.288 24.37 22.741-2.32 2.487-24.38-22.727 2.33-2.501Zm73.36-.112 24.49 22.841-2.33 2.499-24.5-22.832 2.34-2.508Zm73.54.056 24.42 22.792-2.32 2.491-24.44-22.777 2.34-2.506Zm73.7.236 24.2 22.576-2.29 2.47-24.22-22.566 2.31-2.48Zm73.88.406 23.81 22.21-2.28 2.427-23.82-22.197 2.29-2.44Zm74.03.576 23.24 21.691-2.2 2.37-23.26-21.679 2.22-2.382Zm74.19.74 22.54 21.02-2.15 2.297-22.54-21.006 2.15-2.311Zm74.35.9 21.66 20.205-2.06 2.209-21.67-20.194 2.07-2.22Zm74.5 1.052 20.65 19.254-1.97 2.104-20.65-19.243 1.97-2.115Zm74.64 1.195 19.49 18.176-1.85 1.983-19.49-18.16 1.85-1.999Zm74.79 1.334 18.17 16.969-1.71 1.853-18.21-16.958 1.75-1.864Zm74.89 1.461 16.77 15.646-1.59 1.709-16.78-15.633 1.6-1.722Zm75.02 1.587 15.24 14.211-1.47 1.556-15.23-14.205 1.46-1.562Zm75.13 1.698 13.58 12.675-1.29 1.385-13.59-12.669 1.3-1.391Zm75.22 1.801 11.84 11.044-1.12 1.211-11.85-11.041 1.13-1.214Zm75.33 1.9 10 9.326-.96 1.022-10-9.325.96-1.023Zm75.42 1.99 8.07 7.526-.78.823-8.07-7.522.78-.827Zm74.28.84 7.25 6.767-.68.738-7.26-6.764.69-.741Zm73.49 0 7.25 6.767-.7.738-7.26-6.764.71-.741Zm73.47 0 7.25 6.767-.68.738-7.26-6.764.69-.741Zm73.46 0 7.28 6.767-.71.738-7.25-6.764.68-.741Zm73.49 0 7.26 6.767-.69.738-7.27-6.764.7-.741Zm73.47 0 7.25 6.767-.68.738-7.26-6.764.69-.741Zm73.49 0 7.25 6.767-.68.738-7.28-6.764.71-.741Zm73.47 0 7.25 6.767-.68.738-7.26-6.764.69-.741Zm73.48 0 7.26 6.767-.71.738-7.25-6.764.7-.741ZM66.195 947.681l7.255 6.768-.69.74-7.259-6.764.694-.744Zm73.476 0 7.256 6.768-.69.74-7.259-6.764.693-.744Zm73.477 0 7.255 6.768-.69.74-7.26-6.764.695-.744Zm73.476 0 7.254 6.768-.689.74-7.258-6.764.693-.744Zm73.476 0 7.257 6.768-.691.74-7.259-6.764.693-.744Zm73.48 0 7.258 6.768-.693.74-7.258-6.764.693-.744Zm72.96-.528 7.769 7.245-.738.794-7.773-7.244.742-.795Zm71.37-2.17 9.87 9.211-.937 1.005-9.877-9.203.944-1.013Zm71.446-2.086 11.891 11.095-1.128 1.215-11.9-11.092 1.137-1.218Zm71.535-1.997 13.83 12.905-1.316 1.407-13.837-12.894 1.323-1.418Zm71.623-1.904 15.673 14.626-1.488 1.597-15.681-14.614 1.496-1.609Zm71.723-1.798 17.423 16.249-1.659 1.776-17.426-16.242 1.662-1.783Zm71.838-1.689 19.054 17.776-1.814 1.945-19.061-17.768 1.821-1.953Zm71.955-1.566 20.57 19.196-1.95 2.095-20.59-19.183 1.97-2.108Zm72.08-1.44L1102.07 953l-2.09 2.241-21.98-20.486 2.11-2.252Zm72.21-1.298 23.22 21.67-2.2 2.371-23.25-21.664 2.23-2.377Zm72.35-1.157 24.35 22.719-2.32 2.483-24.36-22.704 2.33-2.498Zm72.51-.994 25.31 23.617-2.41 2.583-25.32-23.605 2.42-2.595Zm72.66-.835 26.13 24.371-2.49 2.664-26.14-24.356 2.5-2.679Zm72.83-.661 26.77 24.969-2.55 2.73-26.77-24.958 2.55-2.741Zm73.01-.487 27.23 25.409-2.59 2.777-27.24-25.395 2.6-2.791Zm73.18-.305 27.53 25.685-2.62 2.806-27.54-25.669 2.63-2.822Zm73.36-.121 27.64 25.793-2.63 2.823-27.66-25.781 2.65-2.835Zm73.54.061 27.58 25.74-2.62 2.815-27.6-25.727 2.64-2.828Zm73.71.247 27.34 25.516-2.6 2.788-27.36-25.499 2.62-2.805Zm73.9.43 26.93 25.129-2.57 2.745-26.94-25.113 2.58-2.761Zm74.07.608 26.34 24.579-2.5 2.684-26.37-24.56 2.53-2.703Zm74.22.78 25.59 23.871-2.43 2.612-25.59-23.861 2.43-2.622Zm74.41.949 24.67 23.013-2.35 2.517-24.68-23.002 2.36-2.528Zm74.55 1.101 23.59 22.02-2.24 2.404-23.6-22.002 2.25-2.422Zm74.7 1.258 22.38 20.881-2.13 2.283-22.4-20.871 2.15-2.293Zm74.82 1.391 21.04 19.622-2 2.145-21.04-19.609 2-2.158Zm74.97 1.532 19.56 18.236-1.86 1.992-19.56-18.225 1.86-2.003Zm75.09 1.648 17.94 16.747-1.7 1.83-17.95-16.737 1.71-1.84Zm75.18 1.766 16.25 15.148-1.56 1.655-16.24-15.135 1.55-1.668Zm75.31 1.872 14.42 13.457-1.37 1.469-14.44-13.448 1.39-1.478Zm75.38 1.969 12.53 11.674-1.19 1.276-12.53-11.667 1.19-1.283Zm75.48 2.061 10.52 9.81-.99 1.071-10.53-9.802 1-1.079Zm75.56 2.142 8.44 7.873-.79.863-8.45-7.87.8-.866Zm74.68 1.221 7.25 6.768-.7.74-7.26-6.764.71-.744Zm73.47 0 7.25 6.768-.68.74-7.26-6.764.69-.744Zm73.46 0 7.28 6.768-.71.74-7.25-6.764.68-.744Zm73.49 0 7.26 6.768-.69.74-7.27-6.764.7-.744Zm73.47 0 7.25 6.768-.68.74-7.26-6.764.69-.744Zm73.49 0 7.25 6.768-.68.74-7.28-6.764.71-.744Zm73.47 0 7.25 6.768-.68.74-7.26-6.764.69-.744Zm73.48 0 7.26 6.768-.71.74-7.25-6.764.7-.744ZM66.195 1021.16l7.255 6.76-.69.74-7.259-6.76.694-.74Zm73.476 0 7.256 6.76-.69.74-7.259-6.76.693-.74Zm73.477 0 7.255 6.76-.69.74-7.26-6.76.695-.74Zm73.476 0 7.254 6.76-.689.74-7.258-6.76.693-.74Zm73.476 0 7.257 6.76-.691.74-7.259-6.76.693-.74Zm72.902-.6 7.832 7.3-.747.81-7.834-7.31.749-.8Zm71.227-2.31 10.071 9.39-.959 1.03-10.075-9.39.963-1.03Zm71.304-2.24 12.239 11.42-1.164 1.25-12.245-11.41 1.17-1.26Zm71.377-2.15 14.328 13.37-1.361 1.46-14.34-13.37 1.373-1.46Zm71.464-2.07 16.336 15.24-1.552 1.67-16.346-15.24 1.562-1.67Zm71.552-1.98 18.253 17.03-1.736 1.86-18.265-17.02 1.748-1.87Zm71.652-1.88 20.071 18.73-1.907 2.05-20.083-18.71 1.919-2.07Zm71.761-1.76 21.78 20.32-2.073 2.22-21.788-20.3 2.081-2.24Zm71.891-1.64 23.36 21.81-2.22 2.38-23.38-21.79 2.24-2.4Zm72.01-1.5 24.82 23.16-2.36 2.53-24.84-23.14 2.38-2.55Zm72.15-1.36 26.15 24.39-2.49 2.67-26.16-24.39 2.5-2.67Zm72.29-1.22 27.33 25.5-2.6 2.78-27.34-25.48 2.61-2.8Zm72.46-1.05 28.34 26.45-2.69 2.89-28.36-26.43 2.71-2.91Zm72.62-.879 29.19 27.239-2.77 2.98-29.22-27.22 2.8-2.999Zm72.79-.698 29.87 27.877-2.83 3.04-29.9-27.85 2.86-3.067Zm72.98-.514 30.37 28.331-2.88 3.1-30.39-28.32 2.9-3.111Zm73.16-.325 30.69 28.626-2.92 3.13-30.7-28.61 2.93-3.146Zm73.35-.128 30.82 28.744-2.93 3.14-30.83-28.72 2.94-3.164Zm73.55.065 30.74 28.689-2.93 3.13-30.76-28.67 2.95-3.149Zm73.72.263 30.5 28.446-2.9 3.11-30.51-28.43 2.91-3.126Zm73.92.453 30.05 28.043-2.85 3.06-30.07-28.02 2.87-3.083Zm74.1.644 29.44 27.459-2.8 3-29.45-27.44 2.81-3.019Zm74.28.825 28.64 26.704-2.72 2.92-28.66-26.69 2.74-2.934Zm74.45.994 27.66 25.81-2.63 2.82-27.67-25.79 2.64-2.84Zm74.6 1.16 26.55 24.76-2.53 2.71-26.54-24.74 2.52-2.73Zm74.77 1.32 25.27 23.57-2.42 2.57-25.27-23.55 2.42-2.59Zm74.89 1.46 23.84 22.25-2.25 2.43-23.86-22.23 2.27-2.45Zm75.04 1.61 22.29 20.79-2.13 2.28-22.29-20.79 2.13-2.28Zm75.15 1.72 20.63 19.24-1.97 2.1-20.63-19.23 1.97-2.11Zm75.28 1.84 18.82 17.57-1.79 1.92-18.84-17.56 1.81-1.93Zm75.36 1.94 16.94 15.82-1.6 1.73-16.97-15.81 1.63-1.74Zm75.45 2.04 14.98 13.97-1.42 1.53-14.98-13.96 1.42-1.54Zm75.57 2.13 12.9 12.05-1.23 1.31-12.92-12.03 1.25-1.33Zm75.61 2.22 10.77 10.04-1.02 1.1-10.78-10.04 1.03-1.1Zm75.71 2.29 8.53 7.97-.81.87-8.53-7.97.81-.87Zm74.77 1.33 7.25 6.76-.68.74-7.26-6.76.69-.74Zm73.46 0 7.28 6.76-.71.74-7.25-6.76.68-.74Zm73.49 0 7.26 6.76-.69.74-7.27-6.76.7-.74Zm73.47 0 7.25 6.76-.68.74-7.26-6.76.69-.74Zm73.49 0 7.25 6.76-.68.74-7.28-6.76.71-.74Zm73.47 0 7.25 6.76-.68.74-7.26-6.76.69-.74Zm73.48 0 7.26 6.76-.71.74-7.25-6.76.7-.74ZM66.195 1094.63l7.255 6.77-.69.74-7.259-6.77.694-.74Zm73.476 0 7.256 6.77-.69.74-7.259-6.77.693-.74Zm73.477 0 7.255 6.77-.69.74-7.26-6.77.695-.74Zm73.476 0 7.254 6.77-.689.74-7.258-6.77.693-.74Zm73.104-.39 7.629 7.12-.726.78-7.632-7.12.729-.78Zm71.102-2.44 9.996 9.33-.951 1.02-10.002-9.33.957-1.02Zm71.158-2.38 12.305 11.48-1.172 1.26-12.309-11.48 1.176-1.26Zm71.23-2.31 14.546 13.57-1.385 1.48-14.549-13.56 1.388-1.49Zm71.306-2.23 16.706 15.59-1.588 1.7-16.715-15.58 1.597-1.71Zm71.39-2.15 18.787 17.53-1.786 1.92-18.8-17.52 1.799-1.93Zm71.474-2.05 20.783 19.38-1.98 2.12-20.79-19.37 1.987-2.13Zm71.578-1.96 22.675 21.16-2.159 2.31-22.681-21.14 2.165-2.33Zm71.691-1.83 24.452 22.81-2.324 2.5-24.467-22.81 2.339-2.5Zm71.803-1.72 26.12 24.37-2.48 2.66-26.13-24.35 2.49-2.68Zm71.94-1.58 27.65 25.8-2.63 2.82-27.66-25.78 2.64-2.84Zm72.09-1.43 29.03 27.09-2.76 2.96-29.05-27.08 2.78-2.97Zm72.22-1.28 30.29 28.25-2.88 3.09-30.3-28.24 2.89-3.1Zm72.4-1.11 31.36 29.25-2.98 3.2-31.38-29.24 3-3.21Zm72.57-.93 32.26 30.09-3.06 3.3-32.28-30.09 3.08-3.3Zm72.76-.75 32.98 30.77-3.14 3.36-33-30.75 3.16-3.38Zm72.94-.54 33.51 31.26-3.19 3.42-33.52-31.25 3.2-3.43Zm73.14-.35 33.85 31.58-3.22 3.45-33.86-31.56 3.23-3.47Zm73.35-.13 33.97 31.69-3.23 3.47-33.99-31.68 3.25-3.48Zm73.55.07 33.9 31.63-3.22 3.46-33.93-31.62 3.25-3.47Zm73.74.27 33.63 31.39-3.19 3.43-33.66-31.37 3.22-3.45Zm73.95.49 33.17 30.94-3.16 3.39-33.19-30.93 3.18-3.4Zm74.14.68 32.5 30.33-3.09 3.31-32.52-30.31 3.11-3.33Zm74.33.87 31.65 29.54-3.01 3.23-31.67-29.52 3.03-3.25Zm74.5 1.06 30.64 28.58-2.92 3.13-30.64-28.57 2.92-3.14Zm74.66 1.22 29.45 27.48-2.8 3-29.47-27.46 2.82-3.02Zm74.84 1.39 28.1 26.22-2.67 2.87-28.12-26.21 2.69-2.88Zm74.97 1.54 26.6 24.83-2.53 2.72-26.62-24.82 2.55-2.73Zm75.09 1.67 24.99 23.32-2.36 2.55-25.01-23.3 2.38-2.57Zm75.24 1.8 23.24 21.69-2.2 2.37-23.26-21.68 2.22-2.38Zm75.34 1.92 21.39 19.95-2.04 2.19-21.41-19.95 2.06-2.19Zm75.44 2.02 19.43 18.13-1.85 1.98-19.44-18.12 1.86-1.99Zm75.54 2.12 17.38 16.21-1.66 1.77-17.38-16.2 1.66-1.78Zm75.62 2.21 15.23 14.21-1.44 1.56-15.25-14.21 1.46-1.56Zm75.71 2.28 13.01 12.15-1.23 1.33-13.03-12.14 1.25-1.34Zm75.76 2.36 10.73 10.01-1.02 1.1-10.72-10.01 1.01-1.1Zm75.85 2.43 8.37 7.82-.79.85-8.39-7.82.81-.85Zm74.58 1.16 7.28 6.77-.71.74-7.25-6.77.68-.74Zm73.49 0 7.26 6.77-.69.74-7.27-6.77.7-.74Zm73.47 0 7.25 6.77-.68.74-7.26-6.77.69-.74Zm73.49 0 7.25 6.77-.68.74-7.28-6.77.71-.74Zm73.47 0 7.25 6.77-.68.74-7.26-6.77.69-.74Zm73.48 0 7.26 6.77-.71.74-7.25-6.77.7-.74ZM66.195 1168.1l7.255 6.77-.69.74-7.259-6.76.694-.75Zm73.476 0 7.256 6.77-.69.74-7.259-6.76.693-.75Zm73.477 0 7.255 6.77-.69.74-7.26-6.76.695-.75Zm73.476 0 7.254 6.77-.689.74-7.258-6.76.693-.75Zm71.071-2.47 9.653 9.01-.917.98-9.66-9 .924-.99Zm71.035-2.51 12.088 11.28-1.148 1.23-12.097-11.28 1.157-1.23Zm71.087-2.46 14.468 13.5-1.377 1.48-14.475-13.49 1.384-1.49Zm71.159-2.38 16.78 15.65-1.597 1.72-16.787-15.65 1.604-1.72Zm71.227-2.31 19.02 17.74-1.81 1.94-19.027-17.73 1.817-1.95Zm71.314-2.23 21.176 19.76-2.014 2.16-21.189-19.75 2.027-2.17Zm71.398-2.13 23.244 21.69-2.207 2.37-23.263-21.68 2.226-2.38Zm71.497-2.04 25.221 23.53-2.401 2.57-25.229-23.51 2.409-2.59Zm71.607-1.92 27.083 25.27-2.576 2.76-27.093-25.25 2.586-2.78Zm71.729-1.8 28.822 26.9-2.74 2.94-28.84-26.88 2.758-2.96Zm71.862-1.66 30.43 28.4-2.89 3.1-30.45-28.38 2.91-3.12Zm72-1.51 31.91 29.76-3.04 3.26-31.92-29.75 3.05-3.27Zm72.17-1.35 33.2 30.99-3.15 3.38-33.23-30.96 3.18-3.41Zm72.33-1.18 34.35 32.05-3.26 3.51-34.38-32.04 3.29-3.52Zm72.51-.99 35.31 32.95-3.36 3.6-35.32-32.93 3.37-3.62Zm72.71-.79 36.08 33.66-3.43 3.68-36.1-33.64 3.45-3.7Zm72.91-.58 36.64 34.19-3.49 3.73-36.66-34.16 3.51-3.76Zm73.12-.37 37 34.52-3.52 3.77-37.02-34.5 3.54-3.79Zm73.33-.14 37.15 34.65-3.54 3.78-37.16-34.63 3.55-3.8Zm73.55.07 37.07 34.58-3.53 3.78-37.08-34.56 3.54-3.8Zm73.77.3 36.78 34.31-3.5 3.75-36.8-34.29 3.52-3.77Zm73.98.52 36.27 33.84-3.45 3.7-36.29-33.82 3.47-3.72Zm74.17.72 35.59 33.19-3.39 3.63-35.59-33.17 3.39-3.65Zm74.39.93 34.67 32.35-3.31 3.54-34.68-32.33 3.32-3.56Zm74.57 1.12 33.58 31.34-3.19 3.42-33.6-31.32 3.21-3.44Zm74.73 1.29 32.34 30.17-3.08 3.3-32.34-30.15 3.08-3.32Zm74.9 1.47 30.91 28.84-2.94 3.16-30.92-28.83 2.95-3.17Zm75.05 1.62 29.35 27.38-2.8 2.99-29.34-27.37 2.79-3Zm75.19 1.75 27.64 25.79-2.63 2.82-27.67-25.77 2.66-2.84Zm75.31 1.88 25.82 24.09-2.45 2.64-25.85-24.08 2.48-2.65Zm75.41 2 23.88 22.28-2.27 2.44-23.88-22.27 2.27-2.45Zm75.53 2.11 21.84 20.37-2.08 2.23-21.85-20.36 2.09-2.24Zm75.62 2.2 19.7 18.39-1.87 2.01-19.71-18.38 1.88-2.02Zm75.7 2.28 17.49 16.32-1.66 1.79-17.51-16.32 1.68-1.79Zm75.76 2.36 15.22 14.19-1.45 1.55-15.21-14.18 1.44-1.56Zm75.85 2.43 12.85 11.99-1.22 1.31-12.85-11.98 1.22-1.32Zm75.91 2.5 10.43 9.73-.99 1.06-10.45-9.72 1.01-1.07Zm75.96 2.55 7.96 7.42-.76.82-7.96-7.42.76-.82Zm74.17.72 7.26 6.77-.69.74-7.27-6.76.7-.75Zm73.47 0 7.25 6.77-.68.74-7.26-6.76.69-.75Zm73.49 0 7.25 6.77-.68.74-7.28-6.76.71-.75Zm73.47 0 7.25 6.77-.68.74-7.26-6.76.69-.75Zm73.48 0 7.26 6.77-.71.74-7.25-6.76.7-.75ZM66.195 1241.58l7.255 6.77-.69.74-7.259-6.77.694-.74Zm73.476 0 7.256 6.77-.69.74-7.259-6.77.693-.74Zm73.477 0 7.255 6.77-.69.74-7.26-6.77.695-.74Zm71.682-1.85 9.044 8.44-.859.92-9.049-8.43.864-.93Zm70.916-2.63 11.599 10.82-1.105 1.18-11.602-10.81 1.108-1.19Zm70.963-2.59 14.1 13.16-1.337 1.44-14.111-13.15 1.348-1.45Zm71.02-2.52 16.549 15.44-1.575 1.69-16.558-15.43 1.584-1.7Zm71.081-2.46 18.937 17.66-1.801 1.94L567 1231.47l1.81-1.94Zm71.152-2.39 21.254 19.82-2.023 2.17-21.261-19.81 2.03-2.18Zm71.229-2.31 23.494 21.91-2.235 2.4-23.506-21.91 2.247-2.4Zm71.317-2.22 25.645 23.93-2.436 2.61-25.659-23.91 2.45-2.63Zm71.414-2.12 27.7 25.84-2.633 2.83-27.717-25.83 2.65-2.84Zm71.524-2.01 29.649 27.66-2.823 3.02-29.662-27.64 2.836-3.04Zm71.638-1.89 31.476 29.37-2.99 3.21-31.496-29.35 3.01-3.23Zm71.776-1.75 33.17 30.95-3.15 3.39-33.19-30.94 3.17-3.4Zm71.92-1.6 34.72 32.4-3.3 3.54-34.74-32.38 3.32-3.56Zm72.09-1.43 36.11 33.69-3.44 3.68-36.13-33.66 3.46-3.71Zm72.25-1.25 37.33 34.82-3.55 3.81-37.34-34.8 3.56-3.83Zm72.45-1.05 38.35 35.77-3.65 3.91-38.36-35.75 3.66-3.93Zm72.66-.85 39.17 36.54-3.73 4-39.18-36.52 3.74-4.02Zm72.87-.62 39.77 37.1-3.78 4.06-39.79-37.08 3.8-4.08Zm73.09-.4 40.15 37.46-3.81 4.1-40.18-37.44 3.84-4.12Zm73.33-.15 40.3 37.6-3.83 4.11-40.33-37.58 3.86-4.13Zm73.55.08 40.23 37.53-3.83 4.1-40.24-37.51 3.84-4.12Zm73.79.31 39.91 37.25-3.79 4.07-39.94-37.22 3.82-4.1Zm74.02.56 39.38 36.74-3.75 4.02-39.4-36.73 3.77-4.03Zm74.23.78 38.62 36.04-3.66 3.93-38.66-36.02 3.7-3.95Zm74.44.98 37.67 35.15-3.59 3.84-37.69-35.12 3.61-3.87Zm74.63 1.2 36.52 34.07-3.48 3.72-36.53-34.05 3.49-3.74Zm74.82 1.37 35.17 32.83-3.34 3.58-35.21-32.8 3.38-3.61Zm74.98 1.55 33.68 31.42-3.21 3.44-33.7-31.41 3.23-3.45Zm75.13 1.7 32.02 29.89-3.03 3.26-32.05-29.87 3.06-3.28Zm75.28 1.85 30.23 28.21-2.87 3.09-30.25-28.2 2.89-3.1Zm75.38 1.97 28.33 26.43-2.69 2.89-28.35-26.42 2.71-2.9Zm75.51 2.09 26.31 24.54-2.49 2.68-26.33-24.53 2.51-2.69Zm75.61 2.18 24.19 22.57-2.31 2.47-24.19-22.55 2.31-2.49Zm75.69 2.29 21.98 20.5-2.09 2.24-21.98-20.49 2.09-2.25Zm75.78 2.36 19.67 18.36-1.86 2.01-19.69-18.35 1.88-2.02Zm75.85 2.44 17.33 16.16-1.66 1.76-17.33-16.14 1.66-1.78Zm75.92 2.51 14.88 13.88-1.41 1.52-14.89-13.87 1.42-1.53Zm75.98 2.57 12.38 11.56-1.17 1.26-12.4-11.55 1.19-1.27Zm76.02 2.61 9.85 9.2-.94 1.01-9.85-9.19.94-1.02Zm76.06 2.67 7.28 6.79-.69.74-7.27-6.78.68-.75Zm73.49.02 7.25 6.77-.68.74-7.26-6.77.69-.74Zm73.49 0 7.25 6.77-.68.74-7.28-6.77.71-.74Zm73.47 0 7.25 6.77-.68.74-7.26-6.77.69-.74Zm73.48 0 7.26 6.77-.71.74-7.25-6.77.7-.74ZM66.195 1315.05l7.255 6.77-.69.74-7.259-6.76.694-.75Zm73.476 0 7.256 6.77-.69.74-7.259-6.76.693-.75Zm72.558-.94 8.17 7.62-.776.83-8.174-7.62.78-.83Zm70.809-2.75 10.832 10.11-1.031 1.1-10.837-10.1 1.036-1.11Zm70.845-2.7 13.452 12.55-1.28 1.37-13.457-12.54 1.285-1.38Zm70.897-2.66 16.026 14.96-1.523 1.63-16.033-14.94 1.53-1.65Zm70.944-2.59 18.543 17.3-1.763 1.89-18.554-17.29 1.774-1.9Zm71.009-2.54 21.007 19.6-1.994 2.14-21.019-19.59 2.006-2.15Zm71.069-2.48 23.405 21.84-2.223 2.39-23.42-21.83 2.238-2.4Zm71.148-2.39 25.729 24-2.449 2.63-25.74-24 2.46-2.63Zm71.227-2.31 27.967 26.09-2.66 2.85-27.98-26.08 2.673-2.86Zm71.328-2.22 30.11 28.1-2.861 3.07-30.129-28.08 2.88-3.09Zm71.427-2.1 32.152 30-3.055 3.28-32.171-29.98 3.074-3.3Zm71.552-1.98 34.076 31.79-3.24 3.47-34.095-31.77 3.259-3.49Zm71.676-1.85 35.86 33.46-3.41 3.66-35.88-33.44 3.43-3.68Zm71.83-1.69 37.51 34.99-3.57 3.82-37.52-34.96 3.58-3.85Zm72-1.52 38.98 36.37-3.71 3.97-39-36.34 3.73-4Zm72.18-1.34 40.27 37.58-3.83 4.1-40.29-37.54 3.85-4.14Zm72.38-1.12 41.36 38.59-3.93 4.22-41.38-38.57 3.95-4.24Zm72.59-.91 42.25 39.41-4.02 4.31-42.26-39.39 4.03-4.33Zm72.82-.67 42.9 40.02-4.08 4.37-42.91-39.99 4.09-4.4Zm73.07-.43 43.3 40.41-4.11 4.42-43.33-40.38 4.14-4.45Zm73.31-.16 43.47 40.55-4.13 4.44-43.49-40.54 4.15-4.45Zm73.56.08 43.39 40.48-4.13 4.43-43.41-40.46 4.15-4.45Zm73.82.35 43.06 40.16-4.1 4.39-43.08-40.14 4.12-4.41Zm74.04.59 42.48 39.63-4.04 4.33-42.5-39.6 4.06-4.36Zm74.3.84 41.67 38.87-3.97 4.25-41.69-38.85 3.99-4.27Zm74.52 1.06 40.62 37.91-3.86 4.14-40.66-37.89 3.9-4.16Zm74.69 1.27 39.42 36.76-3.76 4.02-39.41-36.74 3.75-4.04Zm74.91 1.46 37.99 35.44-3.62 3.88-38.01-35.43 3.64-3.89Zm75.08 1.64 36.38 33.96-3.44 3.71-36.42-33.94 3.48-3.73Zm75.22 1.8 34.65 32.33-3.29 3.53-34.68-32.31 3.32-3.55Zm75.36 1.94 32.78 30.58-3.13 3.34-32.79-30.56 3.14-3.36Zm75.49 2.07 30.77 28.7-2.92 3.14-30.79-28.69 2.94-3.15Zm75.6 2.18 28.66 26.73-2.73 2.92-28.67-26.71 2.74-2.94Zm75.69 2.28 26.44 24.67-2.51 2.7-26.46-24.66 2.53-2.71Zm75.78 2.37 24.14 22.53-2.29 2.46-24.16-22.52 2.31-2.47Zm75.87 2.45 21.76 20.31-2.07 2.22-21.79-20.3 2.1-2.23Zm75.92 2.52 19.33 18.03-1.84 1.97-19.35-18.02 1.86-1.98Zm76 2.58 16.82 15.7-1.61 1.71-16.84-15.68 1.63-1.73Zm76.03 2.64 14.27 13.31-1.35 1.46-14.28-13.31 1.36-1.46Zm76.08 2.69 11.68 10.88-1.12 1.19-11.66-10.88 1.1-1.19Zm76.14 2.73 9.03 8.41-.87.92-9.02-8.41.86-.92Zm75.24 1.81 7.25 6.77-.68.74-7.26-6.76.69-.75Zm73.49 0 7.25 6.77-.68.74-7.28-6.76.71-.75Zm73.47 0 7.25 6.77-.68.74-7.26-6.76.69-.75Zm73.48 0 7.26 6.77-.71.74-7.25-6.76.7-.75ZM66.195 1388.53l7.255 6.76-.69.74-7.259-6.76.694-.74Zm73.476 0 7.256 6.76-.69.74-7.259-6.76.693-.74Zm70.925-2.63 9.801 9.14-.933 1.01-9.805-9.15.937-1Zm70.742-2.81 12.524 11.69-1.191 1.27-12.531-11.68 1.198-1.28Zm70.784-2.77 15.209 14.19-1.447 1.55-15.217-14.18 1.455-1.56Zm70.825-2.73 17.85 16.66-1.698 1.82-17.858-16.64 1.706-1.84Zm70.874-2.67 20.446 19.08-1.944 2.08-20.458-19.06 1.956-2.1Zm70.927-2.62 22.986 21.44-2.189 2.35-22.993-21.44 2.196-2.35Zm70.989-2.56 25.462 23.76-2.421 2.6-25.477-23.74 2.436-2.62Zm71.061-2.48 27.87 26-2.647 2.85-27.888-25.99 2.665-2.86Zm71.141-2.4 30.198 28.17-2.873 3.08-30.214-28.16 2.889-3.09Zm71.228-2.32 32.441 30.27-3.086 3.31-32.458-30.25 3.103-3.33Zm71.332-2.2 34.576 32.26-3.287 3.53-34.596-32.24 3.307-3.55Zm71.449-2.09 36.592 34.15-3.48 3.74-36.613-34.13 3.501-3.76Zm71.582-1.94 38.49 35.91-3.66 3.92-38.51-35.89 3.68-3.94Zm71.73-1.79 40.23 37.53-3.83 4.1-40.24-37.51 3.84-4.12Zm71.9-1.63 41.8 39-3.98 4.26-41.82-38.97 4-4.29Zm72.09-1.42 43.18 40.29-4.11 4.4-43.2-40.26 4.13-4.43Zm72.29-1.22 44.36 41.39-4.22 4.52-44.38-41.36 4.24-4.55Zm72.53-.97 45.31 42.27-4.31 4.61-45.33-42.24 4.33-4.64Zm72.77-.73 46.01 42.93-4.38 4.69-46.03-42.9 4.4-4.72Zm73.03-.46 46.46 43.34-4.42 4.74-46.48-43.32 4.44-4.76Zm73.3-.18 46.63 43.51-4.43 4.75-46.66-43.48 4.46-4.78Zm73.57.09 46.54 43.42-4.43 4.75-46.56-43.4 4.45-4.77Zm73.84.38 46.18 43.08-4.39 4.71-46.21-43.06 4.42-4.73Zm74.1.64 45.55 42.5-4.34 4.65-45.56-42.48 4.35-4.67Zm74.35.9 44.68 41.68-4.26 4.56-44.68-41.66 4.26-4.58Zm74.59 1.14 43.58 40.66-4.15 4.44-43.6-40.63 4.17-4.47Zm74.8 1.36 42.25 39.43-4.01 4.31-42.28-39.41 4.04-4.33Zm75 1.56 40.74 38.02-3.88 4.15-40.75-37.99 3.89-4.18Zm75.17 1.75 39.05 36.43-3.72 3.99-39.07-36.42 3.74-4Zm75.33 1.9 37.21 34.71-3.54 3.8-37.23-34.7 3.56-3.81Zm75.45 2.04 35.25 32.87-3.36 3.59-35.25-32.85 3.36-3.61Zm75.6 2.17 33.11 30.91-3.14 3.37-33.15-30.89 3.18-3.39Zm75.69 2.27 30.91 28.85-2.94 3.16-30.93-28.84 2.96-3.17Zm75.78 2.38 28.62 26.7-2.73 2.92-28.62-26.69 2.73-2.93Zm75.87 2.46 26.24 24.48-2.49 2.67-26.26-24.46 2.51-2.69Zm75.94 2.53 23.78 22.19-2.27 2.42-23.79-22.16 2.28-2.45Zm76.01 2.61 21.26 19.82-2.02 2.17-21.28-19.82 2.04-2.17Zm76.07 2.65 18.68 17.43-1.79 1.91-18.68-17.42 1.79-1.92Zm76.1 2.72 16.06 14.97-1.53 1.64-16.06-14.97 1.53-1.64Zm76.16 2.75 13.37 12.48-1.26 1.37-13.37-12.48 1.26-1.37Zm76.19 2.8 10.67 9.95-1.01 1.08-10.67-9.94 1.01-1.09Zm76.25 2.83 7.91 7.39-.74.81-7.93-7.38.76-.82Zm74.14.69 7.25 6.76-.68.74-7.28-6.76.71-.74Zm73.47 0 7.25 6.76-.68.74-7.26-6.76.69-.74Zm73.48 0 7.26 6.76-.71.74-7.25-6.76.7-.74ZM66.195 1462l7.255 6.77-.69.74-7.259-6.77.694-.74Zm72.21-1.3 8.517 7.95-.81.87-8.521-7.95.814-.87Zm70.657-2.9 11.33 10.57-1.077 1.15-11.337-10.56 1.084-1.16Zm70.683-2.88 14.114 13.17-1.343 1.44-14.12-13.16 1.349-1.45Zm70.72-2.83 16.861 15.73-1.604 1.72-16.87-15.72 1.613-1.73Zm70.751-2.8 19.576 18.26-1.865 2-19.582-18.25 1.871-2.01Zm70.801-2.75 22.24 20.75-2.116 2.27-22.251-20.74 2.127-2.28Zm70.85-2.7 24.858 23.2-2.362 2.53-24.871-23.18 2.375-2.55Zm70.91-2.64 27.419 25.58-2.609 2.8-27.432-25.57 2.622-2.81Zm70.972-2.57 29.913 27.91-2.843 3.05-29.932-27.9 2.862-3.06Zm71.041-2.5 32.338 30.17-3.075 3.3-32.353-30.16 3.09-3.31Zm71.133-2.41 34.674 32.34-3.299 3.54-34.692-32.33 3.317-3.55Zm71.232-2.31 36.911 34.43-3.51 3.77-36.933-34.42 3.532-3.78Zm71.344-2.2 39.041 36.43-3.71 3.98-39.066-36.4 3.735-4.01Zm71.471-2.06 41.04 38.29-3.91 4.19-41.06-38.27 3.93-4.21Zm71.62-1.91 42.89 40.02-4.08 4.37-42.91-39.99 4.1-4.4Zm71.79-1.73 44.57 41.58-4.24 4.55-44.59-41.56 4.26-4.57Zm71.99-1.53 46.05 42.97-4.38 4.69-46.08-42.94 4.41-4.72Zm72.2-1.31 47.32 44.15-4.5 4.83-47.34-44.13 4.52-4.85Zm72.45-1.06 48.34 45.11-4.59 4.93-48.38-45.08 4.63-4.96Zm72.7-.79 49.12 45.82-4.67 5.01-49.14-45.79 4.69-5.04Zm72.99-.5 49.61 46.28-4.72 5.05-49.63-46.24 4.74-5.09Zm73.28-.2 49.8 46.46-4.74 5.07-49.82-46.43 4.76-5.1Zm73.58.1 49.7 46.37-4.73 5.06-49.72-46.34 4.75-5.09Zm73.88.41 49.29 46-4.68 5.02-49.33-45.97 4.72-5.05Zm74.16.7 48.62 45.36-4.62 4.96-48.66-45.33 4.66-4.99Zm74.42.98 47.68 44.48-4.55 4.86-47.69-44.45 4.56-4.89Zm74.68 1.23 46.47 43.36-4.42 4.74-46.49-43.33 4.44-4.77Zm74.89 1.47 45.07 42.04-4.3 4.59-45.06-42.01 4.29-4.62Zm75.12 1.67 43.44 40.52-4.14 4.43-43.45-40.5 4.15-4.45Zm75.27 1.85 41.63 38.85-3.95 4.25-41.67-38.83 3.99-4.27Zm75.44 2.02 39.68 37.02-3.77 4.05-39.7-37.01 3.79-4.06Zm75.58 2.15 37.59 35.08-3.58 3.83-37.62-35.06 3.61-3.85Zm75.68 2.28 35.39 33.02-3.37 3.6-35.41-33 3.39-3.62Zm75.78 2.38 33.1 30.86-3.16 3.38-33.09-30.85 3.15-3.39Zm75.89 2.47 30.7 28.63-2.93 3.13-30.71-28.61 2.94-3.15Zm75.96 2.55 28.23 26.32-2.69 2.88-28.23-26.31 2.69-2.89Zm76.03 2.62 25.66 23.95-2.43 2.62-25.68-23.93 2.45-2.64Zm76.09 2.69 23.06 21.52-2.18 2.36-23.08-21.52 2.2-2.36Zm76.14 2.73 20.41 19.05-1.93 2.08-20.43-19.04 1.95-2.09Zm76.17 2.78 17.73 16.54-1.68 1.81-17.74-16.53 1.69-1.82Zm76.23 2.83 14.98 13.98-1.42 1.53-15-13.98 1.44-1.53Zm76.25 2.85 12.22 11.4-1.16 1.25-12.21-11.39 1.15-1.26Zm76.3 2.9 9.41 8.78-.91.96-9.4-8.78.9-.96Zm75.64 2.22 7.25 6.77-.68.74-7.28-6.77.71-.74Zm73.47 0 7.25 6.77-.68.74-7.26-6.77.69-.74Zm73.48 0 7.26 6.77-.71.74-7.25-6.77.7-.74ZM66.195 1535.48l7.255 6.76-.69.74-7.259-6.76.694-.74Zm70.842-2.71 9.883 9.21-.94 1.01-9.888-9.21.945-1.01Zm70.598-2.96 12.75 11.89-1.213 1.3-12.757-11.89 1.22-1.3Zm70.624-2.93 15.593 14.54-1.484 1.59-15.599-14.54 1.49-1.59Zm70.656-2.91 18.404 17.17-1.751 1.88-18.413-17.16 1.76-1.89Zm70.693-2.86 21.18 19.76-2.014 2.16-21.193-19.75 2.027-2.17Zm70.725-2.83 23.921 22.32-2.277 2.44-23.93-22.31 2.286-2.45Zm70.771-2.78 26.614 24.84-2.53 2.71-26.628-24.82 2.544-2.73Zm70.824-2.72 29.259 27.29-2.784 2.99-29.274-27.28 2.799-3Zm70.884-2.67 31.846 29.71-3.029 3.25-31.861-29.69 3.044-3.27Zm70.951-2.6 34.361 32.06-3.268 3.51-34.379-32.04 3.286-3.53Zm71.028-2.52 36.801 34.34-3.499 3.75-36.822-34.31 3.52-3.78Zm71.122-2.42 39.147 36.53-3.725 3.99-39.167-36.5 3.745-4.02Zm71.231-2.3 41.386 38.61-3.94 4.22-41.403-38.59 3.957-4.24Zm71.346-2.19 43.51 40.59-4.14 4.44-43.52-40.57 4.15-4.46Zm71.51-2.03 45.47 42.43-4.33 4.63-45.49-42.4 4.35-4.66Zm71.67-1.85 47.27 44.1-4.49 4.82-47.3-44.08 4.52-4.84Zm71.87-1.65 48.87 45.59-4.65 4.98-48.89-45.56 4.67-5.01Zm72.09-1.42 50.25 46.88-4.78 5.12-50.27-46.85 4.8-5.15Zm72.36-1.16 51.36 47.93-4.88 5.24-51.39-47.91 4.91-5.26Zm72.63-.87 52.21 48.72-4.97 5.32-52.23-48.69 4.99-5.35Zm72.94-.55 52.74 49.21-5.01 5.38-52.78-49.18 5.05-5.41Zm73.26-.22 52.96 49.41-5.04 5.4-52.99-49.38 5.07-5.43Zm73.59.11 52.85 49.31-5.03 5.39-52.88-49.28 5.06-5.42Zm73.91.45 52.42 48.9-5 5.35-52.43-48.87 5.01-5.38Zm74.24.77 51.65 48.21-4.91 5.27-51.69-48.18 4.95-5.3Zm74.51 1.07 50.62 47.24-4.81 5.16-50.66-47.21 4.85-5.19Zm74.77 1.34 49.34 46.03-4.69 5.03-49.36-46 4.71-5.06Zm75.02 1.58 47.79 44.6-4.55 4.87-47.8-44.57 4.56-4.9Zm75.22 1.8 46.06 42.97-4.39 4.7-46.07-42.95 4.4-4.72Zm75.4 1.97 44.14 41.19-4.2 4.5-44.16-41.16 4.22-4.53Zm75.56 2.14 42.07 39.25-4.01 4.29-42.08-39.23 4.02-4.31Zm75.67 2.27 39.89 37.2-3.81 4.06-39.88-37.17 3.8-4.09Zm75.82 2.39 37.55 35.04-3.57 3.83-37.57-35.02 3.59-3.85Zm75.89 2.49 35.13 32.79-3.34 3.58-35.15-32.77 3.36-3.6Zm75.97 2.57 32.65 30.46-3.1 3.33-32.67-30.44 3.12-3.35Zm76.05 2.65 30.09 28.06-2.85 3.07-30.11-28.05 2.87-3.08Zm76.12 2.7 27.45 25.62-2.61 2.8-27.47-25.6 2.63-2.82Zm76.16 2.77 24.78 23.12-2.35 2.52-24.79-23.1 2.36-2.54Zm76.21 2.81 22.06 20.58-2.1 2.25-22.07-20.57 2.11-2.26Zm76.25 2.86 19.29 17.99-1.84 1.96-19.29-17.98 1.84-1.97Zm76.3 2.89 16.48 15.37-1.57 1.69-16.49-15.37 1.58-1.69Zm76.31 2.92 13.66 12.73-1.3 1.4-13.66-12.74 1.3-1.39Zm76.35 2.95 10.8 10.07-1.03 1.1-10.8-10.07 1.03-1.1Zm76.38 2.97 7.9 7.38-.76.81-7.9-7.38.76-.81Zm74.12.68 7.25 6.76-.68.74-7.26-6.76.69-.74Zm73.48 0 7.26 6.76-.71.74-7.25-6.76.7-.74Zm-3380.87 72.5 8.197 7.65-.78.83-8.201-7.64.783-.84Zm70.528-3.04 11.137 10.39-1.059 1.14-11.143-10.38 1.065-1.15Zm70.544-3.01 14.057 13.12-1.336 1.43-14.064-13.11 1.343-1.44Zm70.571-2.98 16.953 15.81-1.611 1.73-16.963-15.81 1.621-1.73Zm70.594-2.97 19.826 18.5-1.886 2.02-19.835-18.49 1.895-2.03Zm70.625-2.93 22.669 21.15-2.159 2.31-22.676-21.14 2.166-2.32Zm70.656-2.9 25.477 23.77-2.42 2.6-25.493-23.75 2.436-2.62Zm70.696-2.86 28.25 26.36-2.687 2.88-28.261-26.34 2.698-2.9Zm70.746-2.81 30.972 28.9-2.942 3.16-30.992-28.88 2.962-3.18Zm70.79-2.76 33.648 31.4-3.199 3.43-33.667-31.38 3.218-3.45Zm70.857-2.69 36.262 33.83-3.449 3.7-36.281-33.81 3.468-3.72Zm70.921-2.62 38.804 36.2-3.69 3.96-38.823-36.19 3.709-3.97Zm71.013-2.54 41.262 38.5-3.92 4.2-41.287-38.47 3.945-4.23Zm71.106-2.43 43.623 40.69-4.15 4.45-43.641-40.67 4.168-4.47Zm71.233-2.31 45.86 42.78-4.36 4.68-45.89-42.77 4.39-4.69Zm71.37-2.17 47.96 44.75-4.56 4.89-47.98-44.72 4.58-4.92Zm71.54-1.99 49.89 46.55-4.74 5.08-49.92-46.52 4.77-5.11Zm71.74-1.79 51.62 48.17-4.91 5.26-51.65-48.14 4.94-5.29Zm71.97-1.55 53.12 49.57-5.05 5.41-53.15-49.53 5.08-5.45Zm72.23-1.27 54.36 50.72-5.17 5.54-54.38-50.69 5.19-5.57Zm72.55-.96 55.29 51.58-5.26 5.64-55.32-51.55 5.29-5.67Zm72.88-.62 55.88 52.14-5.31 5.71-55.91-52.12 5.34-5.73Zm73.23-.24 56.13 52.36-5.34 5.73-56.15-52.34 5.36-5.75Zm73.6.13 56 52.25-5.32 5.71-56.03-52.22 5.35-5.74Zm73.97.5 55.51 51.79-5.29 5.66-55.53-51.76 5.31-5.69Zm74.3.85 54.7 51.03-5.2 5.57-54.72-50.99 5.22-5.61Zm74.62 1.18 53.55 49.96-5.09 5.46-53.57-49.93 5.11-5.49Zm74.91 1.46 52.12 48.64-4.96 5.31-52.16-48.6 5-5.35Zm75.15 1.72 50.46 47.08-4.8 5.15-50.5-47.06 4.84-5.17Zm75.35 1.93 48.6 45.33-4.62 4.96-48.62-45.31 4.64-4.98Zm75.54 2.11 46.54 43.43-4.44 4.74-46.56-43.4 4.46-4.77Zm75.67 2.27 44.34 41.37-4.2 4.52-44.38-41.34 4.24-4.55Zm75.82 2.4 42.01 39.2-3.99 4.29-42.05-39.19 4.03-4.3Zm75.9 2.5 39.6 36.94-3.78 4.04-39.61-36.92 3.79-4.06Zm76.01 2.6 37.07 34.59-3.53 3.78-37.09-34.57 3.55-3.8Zm76.07 2.67 34.49 32.17-3.28 3.52-34.49-32.15 3.28-3.54Zm76.14 2.75 31.84 29.69-3.04 3.24-31.83-29.67 3.03-3.26Zm76.2 2.79 29.12 27.16-2.77 2.97-29.13-27.14 2.78-2.99Zm76.24 2.84 26.37 24.59-2.51 2.69-26.36-24.57 2.5-2.71Zm76.29 2.89 23.57 21.98-2.24 2.4-23.59-21.97 2.26-2.41Zm76.32 2.92 20.73 19.34-1.96 2.11-20.74-19.32 1.97-2.13Zm76.36 2.95 17.86 16.67-1.71 1.82-17.87-16.65 1.72-1.84Zm76.37 2.99 14.98 13.97-1.43 1.52-14.99-13.96 1.44-1.53Zm76.39 3 12.08 11.25-1.16 1.24-12.07-11.25 1.15-1.24Zm76.43 3.03 9.13 8.51-.88.93-9.13-8.51.88-.93Zm75.35 1.93 7.25 6.77-.68.74-7.26-6.77.69-.74Zm73.48 0 7.26 6.77-.71.74-7.25-6.77.7-.74ZM64.156 1680.33l9.288 8.66-.883.95-9.292-8.66.887-.95Zm70.484-3.08 12.272 11.45-1.167 1.25-12.278-11.44 1.173-1.26Zm70.497-3.06 15.241 14.22-1.45 1.55-15.247-14.21 1.456-1.56Zm70.518-3.05 18.189 16.98-1.729 1.85-18.198-16.96 1.738-1.87Zm70.536-3.02 21.119 19.71-2.009 2.15-21.129-19.69 2.019-2.17Zm70.563-2.99 24.023 22.41-2.285 2.45-24.035-22.4 2.297-2.46Zm70.591-2.97 26.901 25.1-2.557 2.74-26.916-25.08 2.572-2.76Zm70.619-2.93 29.747 27.75-2.83 3.03-29.759-27.73 2.842-3.05Zm70.663-2.9 32.549 30.37-3.093 3.32-32.565-30.35 3.109-3.34Zm70.708-2.85 35.31 32.95-3.36 3.6-35.327-32.93 3.377-3.62Zm70.759-2.79 38.018 35.47-3.617 3.88-38.037-35.45 3.636-3.9Zm70.82-2.73 40.667 37.94-3.867 4.15-40.691-37.92 3.891-4.17Zm70.891-2.66 43.243 40.35-4.115 4.4-43.262-40.32 4.134-4.43Zm70.986-2.56 45.719 42.66-4.34 4.66-45.75-42.63 4.371-4.69Zm71.099-2.44 48.09 44.86-4.57 4.91-48.12-44.84 4.6-4.93Zm71.23-2.32 50.33 46.96-4.79 5.14-50.35-46.93 4.81-5.17Zm71.39-2.14 52.41 48.9-4.99 5.35-52.44-48.87 5.02-5.38Zm71.59-1.94 54.29 50.66-5.16 5.53-54.32-50.63 5.19-5.56Zm71.82-1.7 55.94 52.2-5.32 5.7-55.97-52.16 5.35-5.74Zm72.11-1.41 57.3 53.47-5.45 5.84-57.33-53.43 5.48-5.88Zm72.43-1.07 58.35 54.44-5.55 5.95-58.38-54.41 5.58-5.98Zm72.8-.69 59.02 55.06-5.61 6.02-59.05-55.03 5.64-6.05Zm73.21-.28 59.29 55.31-5.64 6.05-59.32-55.28 5.67-6.08Zm73.62.15 59.14 55.18-5.62 6.03-59.18-55.15 5.66-6.06Zm74.02.56 58.61 54.67-5.58 5.98-58.63-54.64 5.6-6.01Zm74.4.96 57.68 53.8-5.49 5.88-57.69-53.77 5.5-5.91Zm74.75 1.3 56.42 52.63-5.36 5.75-56.45-52.6 5.39-5.78Zm75.06 1.62 54.84 51.16-5.21 5.6-54.88-51.14 5.25-5.62Zm75.29 1.86 53.02 49.48-5.03 5.41-53.06-49.45 5.07-5.44Zm75.51 2.09 51 47.59-4.86 5.2-51.03-47.56 4.89-5.23Zm75.67 2.26 48.82 45.55-4.64 4.97-48.85-45.52 4.67-5Zm75.81 2.41 46.49 43.37-4.42 4.73-46.51-43.34 4.44-4.76Zm75.94 2.52 44.04 41.09-4.19 4.49-44.05-41.06 4.2-4.52Zm76.04 2.63 41.49 38.71-3.96 4.23-41.5-38.69 3.97-4.25Zm76.1 2.71 38.87 36.26-3.7 3.96-38.89-36.24 3.72-3.98Zm76.18 2.77 36.18 33.75-3.45 3.69-36.18-33.73 3.45-3.71Zm76.23 2.83 33.42 31.19-3.18 3.41-33.44-31.16 3.2-3.44Zm76.28 2.89 30.63 28.58-2.91 3.12-30.64-28.56 2.92-3.14Zm76.32 2.92 27.79 25.94-2.63 2.83-27.81-25.92 2.65-2.85Zm76.36 2.96 24.92 23.26-2.36 2.54-24.94-23.25 2.38-2.55Zm76.37 2.98 22.04 20.56-2.1 2.25-22.03-20.55 2.09-2.26Zm76.41 3.02 19.11 17.83-1.8 1.95-19.13-17.82 1.82-1.96Zm76.43 3.04 16.17 15.08-1.53 1.65-16.17-15.08 1.53-1.65Zm76.45 3.05 13.21 12.32-1.25 1.35-13.23-12.32 1.27-1.35Zm76.46 3.07 10.23 9.55-.97 1.04-10.23-9.54.97-1.05Zm76.47 3.07 7.25 6.77-.68.74-7.26-6.76.69-.75Zm73.48 0 7.26 6.77-.71.74-7.25-6.76.7-.75ZM63.184 1752.8l10.257 9.57-.976 1.05-10.262-9.57.98-1.05Zm70.442-3.12 13.283 12.39-1.263 1.36-13.29-12.39 1.27-1.36Zm70.454-3.11 16.294 15.2-1.55 1.67-16.303-15.2 1.559-1.67Zm70.466-3.09 19.294 18-1.836 1.97-19.303-17.99 1.845-1.98Zm70.487-3.08 22.275 20.79-2.119 2.27-22.286-20.77 2.13-2.29Zm70.506-3.05 25.236 23.54-2.402 2.58-25.249-23.54 2.415-2.58Zm70.524-3.03 28.177 26.28-2.68 2.88-28.193-26.27 2.696-2.89Zm70.553-3.01 31.087 29.01-2.954 3.17-31.107-28.99 2.974-3.19Zm70.584-2.97 33.973 31.69-3.234 3.47-33.988-31.68 3.249-3.48Zm70.622-2.94 36.815 34.35-3.499 3.76-36.839-34.33 3.523-3.78Zm70.662-2.89 39.624 36.96-3.772 4.05-39.638-36.95 3.786-4.06Zm70.719-2.84 42.368 39.54-4.029 4.32-42.393-39.51 4.054-4.35Zm70.782-2.77 45.057 42.04-4.286 4.6-45.079-42.02 4.308-4.62Zm70.857-2.69 47.668 44.47-4.54 4.86-47.683-44.44 4.555-4.89Zm70.958-2.59 50.17 46.81-4.77 5.12-50.2-46.78 4.8-5.15Zm71.07-2.46 52.57 49.04-5 5.36-52.59-49.01 5.02-5.39Zm71.24-2.32 54.8 51.14-5.21 5.59-54.84-51.1 5.25-5.63Zm71.41-2.11 56.86 53.05-5.41 5.8-56.88-53.02 5.43-5.83Zm71.66-1.87 58.68 54.74-5.59 5.98-58.7-54.71 5.61-6.01Zm71.95-1.58 60.19 56.17-5.72 6.14-60.23-56.13 5.76-6.18Zm72.29-1.21 61.37 57.26-5.83 6.26-61.41-57.22 5.87-6.3Zm72.71-.79 62.14 57.98-5.91 6.33-62.17-57.94 5.94-6.37Zm73.16-.32 62.46 58.27-5.94 6.37-62.49-58.24 5.97-6.4Zm73.64.17 62.29 58.11-5.92 6.35-62.32-58.08 5.95-6.38Zm74.11.64 61.66 57.53-5.86 6.29-61.7-57.5 5.9-6.32Zm74.53 1.09 60.62 56.55-5.78 6.18-60.63-56.52 5.79-6.21Zm74.91 1.46 59.18 55.23-5.63 6.04-59.21-55.2 5.66-6.07Zm75.2 1.79 57.46 53.61-5.46 5.86-57.48-53.58 5.48-5.89Zm75.48 2.05 55.47 51.75-5.29 5.66-55.49-51.73 5.31-5.68Zm75.67 2.25 53.29 49.72-5.07 5.43-53.31-49.69 5.09-5.46Zm75.83 2.42 50.95 47.53-4.86 5.19-50.96-47.5 4.87-5.22Zm75.96 2.55 48.45 45.22-4.6 4.95-48.49-45.2 4.64-4.97Zm76.07 2.66 45.87 42.82-4.35 4.68-45.93-42.79 4.41-4.71Zm76.14 2.75 43.22 40.33-4.1 4.41-43.26-40.31 4.14-4.43Zm76.21 2.82 40.5 37.78-3.85 4.13-40.51-37.76 3.86-4.15Zm76.28 2.87 37.7 35.19-3.57 3.84-37.74-35.16 3.61-3.87Zm76.32 2.93 34.87 32.53-3.32 3.56-34.89-32.52 3.34-3.57Zm76.36 2.96 32 29.86-3.04 3.26-32.03-29.84 3.07-3.28Zm76.39 2.99 29.09 27.16-2.76 2.96-29.11-27.13 2.78-2.99Zm76.41 3.03 26.17 24.41-2.49 2.67-26.19-24.4 2.51-2.68Zm76.45 3.05 23.21 21.65-2.21 2.37-23.22-21.64 2.22-2.38Zm76.46 3.07 20.23 18.88-1.93 2.06-20.23-18.87 1.93-2.07Zm76.49 3.08 17.23 16.09-1.64 1.76-17.25-16.08 1.66-1.77Zm76.48 3.11 14.24 13.28-1.36 1.45-14.24-13.27 1.36-1.46Zm76.52 3.11 11.2 10.47-1.06 1.14-11.23-10.46 1.09-1.15Zm76.52 3.13 8.17 7.64-.77.83-8.2-7.63.8-.84Zm74.4.96 7.26 6.76-.71.74-7.25-6.76.7-.74ZM62.34 1825.4l11.1 10.36-1.056 1.14-11.106-10.36 1.062-1.14Zm70.4-3.16 14.162 13.21-1.346 1.46-14.17-13.21 1.354-1.46Zm70.416-3.14 17.215 16.06-1.637 1.75-17.224-16.06 1.646-1.75Zm70.424-3.14 20.258 18.9-1.926 2.07-20.268-18.89 1.936-2.08Zm70.437-3.12 23.286 21.73-2.214 2.36-23.299-21.71 2.227-2.38Zm70.455-3.12 26.299 24.54-2.501 2.69-26.316-24.52 2.518-2.71Zm70.465-3.09 29.298 27.34-2.789 2.98-29.313-27.3 2.804-3.02Zm70.488-3.07 32.275 30.12-3.066 3.29-32.295-30.1 3.086-3.31Zm70.515-3.04 35.231 32.86-3.353 3.59-35.246-32.84 3.368-3.61Zm70.541-3.02 38.155 35.59-3.627 3.9-38.175-35.58 3.647-3.91Zm70.576-2.99 41.042 38.31-3.901 4.18-41.066-38.28 3.925-4.21Zm70.619-2.93 43.894 40.95-4.173 4.47-43.92-40.92 4.199-4.5Zm70.67-2.89 46.689 43.57-4.44 4.76-46.712-43.54 4.463-4.79Zm70.733-2.82 49.421 46.12-4.7 5.03-49.446-46.08 4.725-5.07Zm70.821-2.73 52.07 48.58-4.95 5.32-52.11-48.56 4.99-5.34Zm70.91-2.63 54.62 50.95-5.19 5.58-54.65-50.93 5.22-5.6Zm71.06-2.49 57.04 53.21-5.43 5.83-57.07-53.19 5.46-5.85Zm71.23-2.31 59.27 55.3-5.63 6.05-59.31-55.28 5.67-6.07Zm71.45-2.08 61.29 57.18-5.83 6.25-61.32-57.14 5.86-6.29Zm71.75-1.77 63.01 58.79-5.99 6.43-63.04-58.76 6.02-6.46Zm72.13-1.39 64.36 60.04-6.12 6.57-64.4-60.01 6.16-6.6Zm72.58-.92 65.25 60.87-6.21 6.66-65.28-60.84 6.24-6.69Zm73.11-.38 65.61 61.21-6.24 6.7-65.65-61.18 6.28-6.73Zm73.67.2 65.42 61.03-6.22 6.68-65.45-61 6.25-6.71Zm74.21.75 64.68 60.37-6.13 6.59-64.74-60.33 6.19-6.63Zm74.68 1.25 63.49 59.23-6.04 6.48-63.51-59.2 6.06-6.51Zm75.1 1.66 61.88 57.73-5.89 6.3-61.9-57.68 5.91-6.35Zm75.41 1.99 59.96 55.94-5.71 6.1-59.97-55.89 5.72-6.15Zm75.67 2.25 57.77 53.89-5.5 5.9-57.79-53.87 5.52-5.92Zm75.84 2.44 55.4 51.68-5.27 5.65-55.42-51.65 5.29-5.68Zm75.99 2.58 52.9 49.35-5.04 5.4-52.91-49.32 5.05-5.43Zm76.12 2.71 50.27 46.9-4.79 5.12-50.29-46.87 4.81-5.15Zm76.2 2.79 47.55 44.38-4.51 4.85-47.59-44.35 4.55-4.88Zm76.26 2.87 44.78 41.78-4.26 4.56-44.81-41.75 4.29-4.59Zm76.32 2.92 41.95 39.15-3.99 4.27-41.98-39.12 4.02-4.3Zm76.36 2.97 39.07 36.45-3.72 3.99-39.09-36.43 3.74-4.01Zm76.39 3.01 36.17 33.73-3.45 3.7-36.16-33.72 3.44-3.71Zm76.45 3.04 33.21 30.98-3.16 3.39-33.23-30.97 3.18-3.4Zm76.45 3.06 30.24 28.2-2.87 3.09-30.26-28.19 2.89-3.1Zm76.48 3.08 27.25 25.43-2.6 2.78-27.25-25.41 2.6-2.8Zm76.5 3.11 24.24 22.61-2.31 2.47-24.26-22.59 2.33-2.49Zm76.5 3.12 21.22 19.8-2.02 2.16-21.22-19.79 2.02-2.17Zm76.54 3.14 18.17 16.95-1.73 1.85-18.19-16.94 1.75-1.86Zm76.53 3.14 15.13 14.11-1.45 1.54-15.12-14.1 1.44-1.55Zm76.54 3.16 12.07 11.26-1.13 1.23-12.09-11.25 1.15-1.24Zm76.56 3.16 9 8.41-.85.9-9-8.39.85-.92Zm75.23 1.8 7.26 6.77-.71.74-7.25-6.77.7-.74ZM61.622 1898.15l11.814 11.02-1.124 1.19-11.82-11.01 1.13-1.2Zm70.37-3.2 14.908 13.91-1.418 1.52-14.916-13.89 1.426-1.54Zm70.38-3.17 17.997 16.78-1.711 1.84-18.006-16.78 1.72-1.84Zm70.388-3.2 21.075 19.67-2.005 2.15-21.086-19.65 2.016-2.17Zm70.394-3.16 24.146 22.52-2.297 2.48-24.159-22.52 2.31-2.48Zm70.401-3.16 27.209 25.4-2.586 2.76-27.222-25.36 2.599-2.8Zm70.421-3.14 30.257 28.23-2.876 3.08-30.274-28.2 2.893-3.11Zm70.431-3.14 33.289 31.06-3.163 3.41-33.307-31.05 3.181-3.42Zm70.448-3.1 36.309 33.87-3.452 3.7-36.325-33.85 3.468-3.72Zm70.473-3.09 39.302 36.67-3.736 4.01-39.326-36.65 3.76-4.03Zm70.497-3.06 42.271 39.43-4.017 4.31-42.295-39.41 4.041-4.33Zm70.525-3.04 45.216 42.18-4.301 4.62-45.238-42.16 4.323-4.64Zm70.565-2.99 48.115 44.88-4.575 4.91-48.142-44.86 4.602-4.93Zm70.612-2.94 50.973 47.55-4.85 5.2-50.996-47.54 4.873-5.21Zm70.673-2.89 53.76 50.17-5.11 5.47-53.79-50.12 5.14-5.52Zm70.77-2.78 56.46 52.68-5.37 5.76-56.49-52.66 5.4-5.78Zm70.87-2.69 59.06 55.12-5.62 6.01-59.09-55.06 5.65-6.07Zm71.02-2.52 61.5 57.38-5.84 6.28-61.54-57.35 5.88-6.31Zm71.23-2.31 63.74 59.48-6.06 6.49-63.78-59.42 6.1-6.55Zm71.51-2.01 65.71 61.29-6.25 6.71-65.74-61.27 6.28-6.73Zm71.9-1.62 67.27 62.76-6.39 6.86-67.31-62.73 6.43-6.89Zm72.42-1.1 68.33 63.76-6.5 6.96-68.37-63.72 6.54-7Zm73.03-.45 68.78 64.15-6.55 7.02-68.81-64.14 6.58-7.03Zm73.7.23 68.55 63.96-6.52 6.98-68.58-63.92 6.55-7.02Zm74.36.9 67.67 63.15-6.44 6.89-67.7-63.09 6.47-6.95Zm74.91 1.47 66.23 61.8-6.3 6.77-66.26-61.77 6.33-6.8Zm75.33 1.91 64.39 60.07-6.12 6.57-64.43-60.04 6.16-6.6Zm75.63 2.24 62.25 58.05-5.92 6.35-62.26-58.03 5.93-6.37Zm75.89 2.45 59.84 55.84-5.68 6.1-59.9-55.8 5.74-6.14Zm76.03 2.63 57.3 53.46-5.45 5.85-57.33-53.44 5.48-5.87Zm76.16 2.77 54.63 50.96-5.2 5.58-54.65-50.95 5.22-5.59Zm76.25 2.85 51.87 48.38-4.93 5.29-51.89-48.35 4.95-5.32Zm76.32 2.92 49.03 45.73-4.65 5.02-49.06-45.73 4.68-5.02Zm76.37 2.98 46.15 43.04-4.39 4.71-46.16-43.02 4.4-4.73Zm76.43 3.01 43.21 40.32-4.12 4.4-43.22-40.28 4.13-4.44Zm76.45 3.07 40.24 37.54-3.82 4.11-40.27-37.54 3.85-4.11Zm76.46 3.09 37.27 34.75-3.54 3.79-37.28-34.74 3.55-3.8Zm76.5 3.1 34.26 31.94-3.27 3.5-34.25-31.94 3.26-3.5Zm76.52 3.12 31.22 29.13-2.97 3.17-31.23-29.1 2.98-3.2Zm76.54 3.14 28.17 26.28-2.69 2.87-28.17-26.26 2.69-2.89Zm76.54 3.16 25.12 23.42-2.4 2.57-25.12-23.43 2.4-2.56Zm76.55 3.16 22.05 20.57-2.09 2.24-22.07-20.56 2.11-2.25Zm76.57 3.17 18.97 17.71-1.8 1.93-18.99-17.69 1.82-1.95Zm76.58 3.18 15.88 14.82-1.52 1.62-15.88-14.82 1.52-1.62Zm76.57 3.19 12.79 11.93-1.22 1.3-12.8-11.91 1.23-1.32Zm76.59 3.2 9.69 9.04-.92.99-9.71-9.04.94-.99Zm75.92 2.53 7.26 6.76-.71.72-7.25-6.74.7-.74Z"/></g></g><defs><clipPath id="a"><path fill="#fff" d="M0 0h3465v1949H0z"/></clipPath></defs></svg>